<svg width="96" height="60" viewBox="0 0 96 60" fill="none" xmlns="http://www.w3.org/2000/svg">
<path d="M66 0H30C13.4315 0 0 13.4315 0 30C0 46.5685 13.4315 60 30 60H66C82.5685 60 96 46.5685 96 30C96 13.4315 82.5685 0 66 0Z" fill="#EFF6FF"/>
<path d="M73.1972 34.2256C73.1066 34.3166 72.9989 34.3888 72.8804 34.4381C72.7618 34.4874 72.6346 34.5127 72.5062 34.5127C72.3778 34.5127 72.2507 34.4874 72.1321 34.4381C72.0135 34.3888 71.9058 34.3166 71.8152 34.2256L65.2862 27.7006C65.1955 27.6098 65.1235 27.5021 65.0744 27.3835C65.0253 27.265 65 27.1379 65 27.0096C65 26.7504 65.103 26.5018 65.2862 26.3186C65.4695 26.1353 65.718 26.0324 65.9772 26.0324C66.2364 26.0324 66.485 26.1353 66.6682 26.3186L72.4992 32.1496L78.3342 26.3146C78.4236 26.2178 78.5315 26.1401 78.6517 26.086C78.7718 26.032 78.9016 26.0028 79.0333 26.0002C79.165 25.9976 79.2959 26.0216 79.418 26.0708C79.5402 26.1199 79.6512 26.1933 79.7444 26.2864C79.8375 26.3796 79.9109 26.4906 79.96 26.6128C80.0092 26.7349 80.0332 26.8658 80.0306 26.9975C80.028 27.1292 79.9988 27.259 79.9448 27.3791C79.8907 27.4993 79.813 27.6072 79.7162 27.6966L73.1972 34.2256Z" fill="black"/>
<path d="M36.1579 22.806V30C36.1579 30.5723 35.9306 31.1212 35.5259 31.5259C35.1211 31.9306 34.5723 32.158 33.9999 32.158C33.4276 32.158 32.8787 31.9306 32.474 31.5259C32.0693 31.1212 31.8419 30.5723 31.8419 30V22.806C31.8419 22.2337 32.0693 21.6848 32.474 21.2801C32.8787 20.8754 33.4276 20.648 33.9999 20.648C34.5723 20.648 35.1211 20.8754 35.5259 21.2801C35.9306 21.6848 36.1579 22.2337 36.1579 22.806ZM29.6839 22.806V30C29.6839 31.1447 30.1386 32.2425 30.948 33.0519C31.7574 33.8613 32.8552 34.316 33.9999 34.316C35.1446 34.316 36.2424 33.8613 37.0518 33.0519C37.8612 32.2425 38.3159 31.1447 38.3159 30V22.806C38.3159 21.6613 37.8612 20.5635 37.0518 19.7541C36.2424 18.9447 35.1446 18.49 33.9999 18.49C32.8552 18.49 31.7574 18.9447 30.948 19.7541C30.1386 20.5635 29.6839 21.6613 29.6839 22.806ZM28.2449 28.206C28.2449 27.9198 28.1312 27.6454 27.9289 27.443C27.7265 27.2407 27.4521 27.127 27.1659 27.127C26.8797 27.127 26.6053 27.2407 26.4029 27.443C26.2006 27.6454 26.0869 27.9198 26.0869 28.206V30.006C26.0871 31.9179 26.7792 33.7651 28.0354 35.2064C29.2916 36.6477 31.027 37.5857 32.9209 37.847V39.358H30.7629C30.4767 39.358 30.2023 39.4717 29.9999 39.674C29.7976 39.8764 29.6839 40.1508 29.6839 40.437C29.6839 40.7232 29.7976 40.9976 29.9999 41.2C30.2023 41.4023 30.4767 41.516 30.7629 41.516H37.2369C37.5231 41.516 37.7975 41.4023 37.9999 41.2C38.2022 40.9976 38.3159 40.7232 38.3159 40.437C38.3159 40.1508 38.2022 39.8764 37.9999 39.674C37.7975 39.4717 37.5231 39.358 37.2369 39.358H35.0789V37.84C36.9729 37.5787 38.7082 36.6407 39.9644 35.1994C41.2206 33.7581 41.9127 31.9109 41.9129 29.999V28.199C41.9129 27.9128 41.7992 27.6384 41.5969 27.436C41.3945 27.2337 41.1201 27.12 40.8339 27.12C40.5477 27.12 40.2733 27.2337 40.0709 27.436C39.8686 27.6384 39.7549 27.9128 39.7549 28.199V29.999C39.7549 30.7547 39.6061 31.5031 39.3168 32.2013C39.0276 32.8996 38.6037 33.534 38.0693 34.0684C37.5349 34.6028 36.9005 35.0267 36.2023 35.3159C35.504 35.6051 34.7557 35.754 33.9999 35.754C33.2442 35.754 32.4958 35.6051 31.7976 35.3159C31.0993 35.0267 30.4649 34.6028 29.9305 34.0684C29.3961 33.534 28.9722 32.8996 28.683 32.2013C28.3938 31.5031 28.2449 30.7547 28.2449 29.999V28.206Z" fill="#4B6790"/>
</svg>
