<svg width="60" height="60" viewBox="0 0 60 60" fill="none" xmlns="http://www.w3.org/2000/svg">
<path d="M60 30C60 13.4315 46.5685 0 30 0C13.4315 0 0 13.4315 0 30C0 46.5685 13.4315 60 30 60C46.5685 60 60 46.5685 60 30Z" fill="#EFF6FF"/>
<path d="M25.8684 34.8199C26.4157 34.8199 26.9406 35.0371 27.3279 35.4236C27.7152 35.8102 27.9334 36.3347 27.9344 36.8819V37.5709L31.0544 35.2299C31.4124 34.9622 31.8474 34.8173 32.2944 34.8169H38.2644C38.447 34.8164 38.6219 34.7436 38.751 34.6145C38.8801 34.4854 38.9529 34.3105 38.9534 34.1279V21.7369C38.9529 21.5544 38.8801 21.3794 38.751 21.2503C38.6219 21.1212 38.447 21.0485 38.2644 21.0479H21.7374C21.5549 21.0485 21.3799 21.1212 21.2508 21.2503C21.1217 21.3794 21.0489 21.5544 21.0484 21.7369V34.1369C21.0489 34.3195 21.1217 34.4944 21.2508 34.6235C21.3799 34.7526 21.5549 34.8254 21.7374 34.8259L25.8684 34.8199ZM27.9344 40.1569L27.9254 40.1659L27.7054 40.3299L26.9694 40.8809C26.8664 40.9568 26.7445 41.003 26.617 41.0145C26.4895 41.0259 26.3614 41.0022 26.2464 40.9459C26.1317 40.8896 26.0353 40.8019 25.9682 40.6931C25.9011 40.5843 25.8662 40.4587 25.8674 40.3309V36.8819H21.7374C21.0078 36.8814 20.3081 36.5917 19.7917 36.0762C19.2753 35.5607 18.9843 34.8616 18.9824 34.1319V21.7369C18.983 21.0064 19.2734 20.306 19.7899 19.7894C20.3065 19.2729 21.0069 18.9825 21.7374 18.9819H38.2644C38.9949 18.9825 39.6954 19.2729 40.2119 19.7894C40.7285 20.306 41.0189 21.0064 41.0194 21.7369V34.1369C41.0163 34.8657 40.7247 35.5636 40.2084 36.078C39.6921 36.5924 38.9932 36.8814 38.2644 36.8819H32.2944L27.9344 40.1569Z" fill="#4B6790"/>
</svg>
