<svg width="27" height="27" viewBox="0 0 27 27" fill="none" xmlns="http://www.w3.org/2000/svg">
<path d="M13.022 26.5349C15.5956 26.5335 18.111 25.7691 20.2502 24.3384C22.3895 22.9077 24.0566 20.8748 25.0408 18.4968C26.0249 16.1188 26.282 13.5024 25.7794 10.9783C25.2768 8.45427 24.0372 6.13587 22.2173 4.31619C20.3973 2.49651 18.0787 1.25725 15.5546 0.755066C13.0304 0.252882 10.414 0.510318 8.03613 1.49483C5.65827 2.47934 3.62571 4.14674 2.19531 6.28623C0.764914 8.42573 0.000989083 10.9413 0 13.5149C0.02099 16.9619 1.39966 20.2617 3.83728 22.6989C6.2749 25.1362 9.57498 26.5144 13.022 26.5349ZM13.022 23.9419C10.9624 23.9415 8.94922 23.3305 7.23682 22.1863C5.52442 21.042 4.18975 19.4157 3.40137 17.5131C2.61299 15.6104 2.40626 13.5167 2.8075 11.4966C3.20873 9.47657 4.19983 7.62079 5.65552 6.16385C7.1112 4.7069 8.96624 3.71421 10.986 3.31122C13.0057 2.90824 15.0995 3.11306 17.0028 3.8998C18.9062 4.68653 20.5336 6.01986 21.6793 7.73127C22.8251 9.44269 23.4378 11.4554 23.4399 13.5149C23.4463 14.8849 23.1812 16.2425 22.6599 17.5095C22.1386 18.7764 21.3715 19.9276 20.4028 20.8964C19.4342 21.8652 18.2832 22.6326 17.0164 23.1541C15.7495 23.6756 14.392 23.941 13.022 23.9349V23.9419ZM13.033 18.4539C14.0097 18.4527 14.9641 18.1621 15.7758 17.6187C16.5874 17.0753 17.2198 16.3036 17.593 15.401C17.9662 14.4984 18.0635 13.5054 17.8727 12.5475C17.6818 11.5896 17.2114 10.7097 16.5208 10.0191C15.8301 9.32843 14.9502 8.85796 13.9923 8.66712C13.0344 8.47628 12.0415 8.57362 11.1389 8.94685C10.2363 9.32008 9.46452 9.95245 8.92114 10.7641C8.37776 11.5757 8.08712 12.5302 8.08594 13.5069C8.08435 14.1569 8.21131 14.8008 8.45947 15.4015C8.70763 16.0023 9.07214 16.548 9.53198 17.0074C9.99183 17.4668 10.5379 17.8307 11.1389 18.0783C11.7399 18.3258 12.3839 18.4521 13.0339 18.4499L13.033 18.4539Z" fill="white"/>
</svg>
