<svg width="32" height="32" viewBox="0 0 32 32" fill="none" xmlns="http://www.w3.org/2000/svg">
<path fill-rule="evenodd" clip-rule="evenodd" d="M7.81416 3.72192C6.00512 3.72192 4.27017 4.44056 2.99099 5.71975C1.7118 6.99893 0.993164 8.73388 0.993164 10.5429L0.993164 21.4569C0.993164 23.266 1.7118 25.0009 2.99099 26.2801C4.27017 27.5593 6.00512 28.2779 7.81416 28.2779H10.5432C10.9051 28.2779 11.2521 28.1342 11.508 27.8783C11.7639 27.6224 11.9077 27.2753 11.9077 26.9134C11.9077 26.5515 11.7639 26.2045 11.508 25.9486C11.2521 25.6927 10.9051 25.5489 10.5432 25.5489H7.81416C6.72863 25.5489 5.68756 25.1177 4.91998 24.3501C4.15239 23.5825 3.72116 22.5415 3.72116 21.4559V10.5429C3.72143 9.45757 4.15277 8.41675 4.92033 7.64938C5.68789 6.88201 6.72881 6.45092 7.81416 6.45092H24.1852C25.2707 6.45092 26.3118 6.88215 27.0794 7.64974C27.8469 8.41732 28.2782 9.45839 28.2782 10.5439V13.2719C28.2782 13.6337 28.4219 13.9806 28.6777 14.2364C28.9335 14.4922 29.2804 14.6359 29.6422 14.6359C30.0039 14.6359 30.3509 14.4922 30.6067 14.2364C30.8625 13.9806 31.0062 13.6337 31.0062 13.2719V10.5429C31.0062 9.64718 30.8297 8.7602 30.4869 7.93264C30.1442 7.10508 29.6417 6.35314 29.0083 5.71975C28.375 5.08636 27.623 4.58393 26.7954 4.24114C25.9679 3.89835 25.0809 3.72192 24.1852 3.72192H7.81416ZM18.3872 17.3649C17.3921 17.3649 16.4377 17.7602 15.7341 18.4639C15.0305 19.1675 14.6352 20.1218 14.6352 21.1169V24.5219C14.6352 25.517 15.0305 26.4714 15.7341 27.175C16.4377 27.8786 17.3921 28.2739 18.3872 28.2739H27.2552C28.2503 28.2739 29.2046 27.8786 29.9082 27.175C30.6119 26.4714 31.0072 25.517 31.0072 24.5219V21.1159C31.0072 20.1208 30.6119 19.1665 29.9082 18.4629C29.2046 17.7592 28.2503 17.3639 27.2552 17.3639L18.3872 17.3649ZM13.2712 9.17892C13.6329 9.17892 13.9799 9.32263 14.2357 9.57843C14.4915 9.83423 14.6352 10.1812 14.6352 10.5429V15.9999C14.6352 16.3617 14.4915 16.7086 14.2357 16.9644C13.9799 17.2202 13.6329 17.3639 13.2712 17.3639H7.81416C7.63504 17.3639 7.45767 17.3286 7.29218 17.2601C7.1267 17.1915 6.97633 17.0911 6.84967 16.9644C6.72301 16.8378 6.62254 16.6874 6.55399 16.5219C6.48544 16.3564 6.45016 16.179 6.45016 15.9999C6.45016 15.8208 6.48544 15.6434 6.55399 15.4779C6.62254 15.3125 6.72301 15.1621 6.84967 15.0354C6.97633 14.9088 7.1267 14.8083 7.29218 14.7398C7.45767 14.6712 7.63504 14.6359 7.81416 14.6359H9.97816L6.85016 11.5079C6.59436 11.2521 6.45065 10.9052 6.45065 10.5434C6.45065 10.1817 6.59436 9.83472 6.85016 9.57892C7.10597 9.32312 7.45291 9.17941 7.81466 9.17941C8.17642 9.17941 8.52336 9.32312 8.77916 9.57892L11.9072 12.7069V10.5429C11.9072 10.1812 12.0509 9.83423 12.3067 9.57843C12.5625 9.32263 12.9094 9.17892 13.2712 9.17892Z" fill="white"/>
</svg>
