<svg width="36" height="36" viewBox="0 0 36 36" fill="none" xmlns="http://www.w3.org/2000/svg">
<path d="M29 27H7C6.46957 27 5.96086 26.7893 5.58579 26.4142C5.21071 26.0391 5 25.5304 5 25V8C5 7.46957 5.21071 6.96086 5.58579 6.58579C5.96086 6.21071 6.46957 6 7 6H29C29.5304 6 30.0391 6.21071 30.4142 6.58579C30.7893 6.96086 31 7.46957 31 8V25C31 25.5304 30.7893 26.0391 30.4142 26.4142C30.0391 26.7893 29.5304 27 29 27ZM7.624 7.658C7.35878 7.658 7.10443 7.76336 6.91689 7.95089C6.72936 8.13843 6.624 8.39278 6.624 8.658V24.342C6.624 24.6072 6.72936 24.8616 6.91689 25.0491C7.10443 25.2366 7.35878 25.342 7.624 25.342H28.374C28.6392 25.342 28.8936 25.2366 29.0811 25.0491C29.2686 24.8616 29.374 24.6072 29.374 24.342V8.658C29.374 8.39278 29.2686 8.13843 29.0811 7.95089C28.8936 7.76336 28.6392 7.658 28.374 7.658H7.624Z" fill="white"/>
<path d="M22 29.001H6C5.44772 29.001 5 29.4487 5 30.001C5 30.5533 5.44772 31.001 6 31.001H22C22.5523 31.001 23 30.5533 23 30.001C23 29.4487 22.5523 29.001 22 29.001Z" fill="white"/>
<path d="M30 29.001H26C25.4477 29.001 25 29.4487 25 30.001C25 30.5533 25.4477 31.001 26 31.001H30C30.5523 31.001 31 30.5533 31 30.001C31 29.4487 30.5523 29.001 30 29.001Z" fill="white"/>
</svg>
