<svg width="60" height="60" viewBox="0 0 60 60" fill="none" xmlns="http://www.w3.org/2000/svg">
<path d="M60 30C60 13.4315 46.5685 0 30 0C13.4315 0 0 13.4315 0 30C0 46.5685 13.4315 60 30 60C46.5685 60 60 46.5685 60 30Z" fill="#EFF6FF"/>
<path d="M30.804 17.1179C30.1994 17.1178 29.6069 17.2877 29.0941 17.6081C28.5814 17.9284 28.169 18.3865 27.904 18.9299C27.4167 18.7495 26.8931 18.6895 26.3776 18.7549C25.8622 18.8204 25.3702 19.0094 24.9435 19.3058C24.5168 19.6022 24.1679 19.9973 23.9267 20.4575C23.6855 20.9177 23.559 21.4293 23.558 21.9489V30.2769L23.422 30.1409C23.1229 29.8419 22.768 29.6047 22.3773 29.4429C21.9866 29.281 21.5678 29.1978 21.145 29.1978C20.2909 29.1978 19.4719 29.537 18.868 30.1409C18.2641 30.7448 17.9248 31.5639 17.9248 32.4179C17.9248 33.272 18.2641 34.091 18.868 34.6949L23.281 39.1079C25.6964 41.5239 28.9726 42.8814 32.389 42.8819H33.219C33.2948 42.8827 33.3705 42.876 33.445 42.8619C35.6785 42.7102 37.7814 41.7543 39.3644 40.1713C40.9474 38.5883 41.9032 36.4854 42.055 34.2519C42.0691 34.1774 42.0758 34.1017 42.075 34.0259V25.1689C42.0742 24.3149 41.7346 23.4961 41.1307 22.8922C40.5268 22.2883 39.708 21.9487 38.854 21.9479C38.5825 21.9477 38.3121 21.9813 38.049 22.0479V21.9479C38.0481 21.4281 37.9216 20.9162 37.6802 20.4558C37.4389 19.9954 37.0899 19.6001 36.6629 19.3036C36.2359 19.0072 35.7436 18.8183 35.2279 18.753C34.7122 18.6878 34.1883 18.7481 33.701 18.9289C33.436 18.3861 33.024 17.9286 32.5119 17.6084C31.9997 17.2883 31.408 17.1183 30.804 17.1179ZM29.999 21.9539V20.3389C29.999 20.1254 30.0838 19.9207 30.2347 19.7697C30.3857 19.6187 30.5905 19.5339 30.804 19.5339C31.0175 19.5339 31.2222 19.6187 31.3732 19.7697C31.5242 19.9207 31.609 20.1254 31.609 20.3389V28.7929C31.6043 28.9544 31.6321 29.1152 31.6907 29.2658C31.7493 29.4163 31.8375 29.5536 31.9501 29.6695C32.0627 29.7854 32.1974 29.8775 32.3462 29.9404C32.495 30.0033 32.6549 30.0357 32.8165 30.0357C32.978 30.0357 33.138 30.0033 33.2868 29.9404C33.4356 29.8775 33.5703 29.7854 33.6829 29.6695C33.7954 29.5536 33.8836 29.4163 33.9422 29.2658C34.0008 29.1152 34.0286 28.9544 34.024 28.7929V21.9439C34.024 21.7304 34.1088 21.5257 34.2597 21.3747C34.4107 21.2237 34.6155 21.1389 34.829 21.1389C35.0425 21.1389 35.2472 21.2237 35.3982 21.3747C35.5492 21.5257 35.634 21.7304 35.634 21.9439V28.7879C35.6293 28.9494 35.6571 29.1102 35.7157 29.2608C35.7743 29.4113 35.8625 29.5486 35.9751 29.6645C36.0877 29.7804 36.2224 29.8725 36.3712 29.9354C36.52 29.9983 36.6799 30.0307 36.8415 30.0307C37.003 30.0307 37.163 29.9983 37.3118 29.9354C37.4606 29.8725 37.5953 29.7804 37.7079 29.6645C37.8204 29.5486 37.9086 29.4113 37.9672 29.2608C38.0258 29.1102 38.0536 28.9494 38.049 28.7879V25.1639C38.049 24.9504 38.1338 24.7457 38.2847 24.5947C38.4357 24.4437 38.6405 24.3589 38.854 24.3589C39.0675 24.3589 39.2722 24.4437 39.4232 24.5947C39.5742 24.7457 39.659 24.9504 39.659 25.1639V33.8639C39.654 33.8939 39.654 33.9289 39.649 33.9639C39.565 35.6586 38.854 37.2615 37.6543 38.4612C36.4545 39.661 34.8516 40.3719 33.157 40.4559C33.1234 40.4565 33.09 40.4599 33.057 40.4659H32.383C29.6075 40.4659 26.9457 39.3634 24.983 37.4009L20.574 32.9839C20.4993 32.9093 20.4401 32.8206 20.3997 32.7231C20.3593 32.6255 20.3385 32.521 20.3385 32.4154C20.3385 32.3098 20.3593 32.2053 20.3997 32.1077C20.4401 32.0102 20.4993 31.9216 20.574 31.8469C20.7247 31.6961 20.9292 31.6114 21.1425 31.6114C21.248 31.6114 21.3526 31.6322 21.4501 31.6726C21.5477 31.713 21.6363 31.7723 21.711 31.8469L23.911 34.0469C24.08 34.2163 24.2955 34.3316 24.5301 34.3783C24.7647 34.425 25.008 34.401 25.2289 34.3093C25.4499 34.2176 25.6387 34.0624 25.7713 33.8633C25.904 33.6642 25.9745 33.4302 25.974 33.1909V21.9489C25.9733 21.7354 26.0575 21.5304 26.208 21.379C26.3585 21.2275 26.563 21.1421 26.7765 21.1414C26.99 21.1408 27.195 21.2249 27.3464 21.3754C27.4979 21.5259 27.5833 21.7304 27.584 21.9439V28.7929C27.593 29.1072 27.7242 29.4055 27.9497 29.6246C28.1751 29.8436 28.4771 29.9662 28.7915 29.9662C29.1058 29.9662 29.4078 29.8436 29.6333 29.6246C29.8587 29.4055 29.9899 29.1072 29.999 28.7929V21.9539Z" fill="#4B6790"/>
</svg>
