<svg width="35" height="32" viewBox="0 0 35 32" fill="none" xmlns="http://www.w3.org/2000/svg">
<path d="M17.5008 11.7011C13.3188 11.7088 9.29673 13.3093 6.25282 16.1771C6.1418 16.3007 6.07327 16.4566 6.05725 16.6219C6.04124 16.7873 6.07858 16.9535 6.16382 17.0961L7.68582 20.1111C7.71928 20.1766 7.77327 20.2294 7.83954 20.2613C7.9058 20.2933 7.98071 20.3027 8.05282 20.2881L12.3718 19.4321C12.448 19.417 12.5165 19.376 12.5658 19.316C12.615 19.256 12.6419 19.1807 12.6418 19.1031V16.1031C12.6417 15.8893 12.7093 15.6809 12.8351 15.5081C12.9609 15.3352 13.1383 15.2067 13.3418 15.1411L13.4848 15.0951C16.0968 14.2346 18.9159 14.2346 21.5278 15.0951L21.6708 15.1411C21.8741 15.207 22.0514 15.3355 22.1771 15.5084C22.3029 15.6812 22.3707 15.8894 22.3708 16.1031V19.1031C22.3707 19.1807 22.3976 19.256 22.4469 19.316C22.4961 19.376 22.5647 19.417 22.6408 19.4321L26.9548 20.2881C27.0269 20.3027 27.1018 20.2933 27.1681 20.2613C27.2344 20.2294 27.2884 20.1766 27.3218 20.1111L28.8438 17.0961C28.93 16.9538 28.9679 16.7874 28.9518 16.6218C28.9358 16.4562 28.8667 16.3002 28.7548 16.1771C25.7094 13.3079 21.6849 11.7073 17.5008 11.7011ZM4.83982 14.7291C8.2569 11.4852 12.7887 9.67676 17.5003 9.67676C22.2119 9.67676 26.7437 11.4852 30.1608 14.7291C30.5808 15.1529 30.8541 15.7001 30.9407 16.2905C31.0272 16.8809 30.9225 17.4835 30.6418 18.0101L29.1198 21.0251C28.8873 21.4856 28.5104 21.8575 28.0467 22.0837C27.583 22.31 27.058 22.3782 26.5518 22.2781L22.2378 21.4221C21.7023 21.3153 21.2204 21.0263 20.874 20.6042C20.5276 20.1821 20.3381 19.6531 20.3378 19.1071V16.8551C18.4824 16.349 16.5253 16.349 14.6698 16.8551V19.1071C14.6695 19.6531 14.48 20.1821 14.1336 20.6042C13.7872 21.0263 13.3053 21.3153 12.7698 21.4221L8.45082 22.2781C7.94468 22.3782 7.41967 22.31 6.95597 22.0837C6.49227 21.8575 6.11537 21.4856 5.88282 21.0251L4.35482 18.0111C4.07533 17.4838 3.97165 16.8809 4.05889 16.2905C4.14614 15.7001 4.41975 15.153 4.83982 14.7291Z" fill="white"/>
</svg>
