<svg width="50" height="50" viewBox="0 0 50 50" fill="none" xmlns="http://www.w3.org/2000/svg">
<path d="M50 25C50 11.1929 38.8071 0 25 0C11.1929 0 0 11.1929 0 25C0 38.8071 11.1929 50 25 50C38.8071 50 50 38.8071 50 25Z" fill="#4B6790"/>
<path d="M49 25C49 11.7452 38.2548 1 25 1C11.7452 1 1 11.7452 1 25C1 38.2548 11.7452 49 25 49C38.2548 49 49 38.2548 49 25Z" stroke="#4B6790" stroke-width="2"/>
<path d="M33.5594 32.0401H16.4414C15.911 32.0401 15.4023 31.8294 15.0272 31.4543C14.6521 31.0792 14.4414 30.5705 14.4414 30.0401V20.8401C14.4414 20.3097 14.6521 19.8009 15.0272 19.4259C15.4023 19.0508 15.911 18.8401 16.4414 18.8401H33.5594C34.0898 18.8401 34.5985 19.0508 34.9736 19.4259C35.3487 19.8009 35.5594 20.3097 35.5594 20.8401V30.0401C35.5594 30.5705 35.3487 31.0792 34.9736 31.4543C34.5985 31.8294 34.0898 32.0401 33.5594 32.0401ZM16.7604 20.1601C16.4952 20.1601 16.2408 20.2654 16.0533 20.453C15.8658 20.6405 15.7604 20.8949 15.7604 21.1601V29.7181C15.7604 29.9833 15.8658 30.2377 16.0533 30.4252C16.2408 30.6127 16.4952 30.7181 16.7604 30.7181H33.2414C33.5066 30.7181 33.761 30.6127 33.9485 30.4252C34.136 30.2377 34.2414 29.9833 34.2414 29.7181V21.1601C34.2414 20.8949 34.136 20.6405 33.9485 20.453C33.761 20.2654 33.5066 20.1601 33.2414 20.1601H16.7604Z" fill="white"/>
<path d="M28.5194 33.7991H15.3214C14.8354 33.7991 14.4414 34.1931 14.4414 34.6791C14.4414 35.1651 14.8354 35.5591 15.3214 35.5591H28.5194C29.0054 35.5591 29.3994 35.1651 29.3994 34.6791C29.3994 34.1931 29.0054 33.7991 28.5194 33.7991Z" fill="white"/>
<path d="M34.6783 33.7991H31.1593C30.6733 33.7991 30.2793 34.1931 30.2793 34.6791C30.2793 35.1651 30.6733 35.5591 31.1593 35.5591H34.6783C35.1643 35.5591 35.5583 35.1651 35.5583 34.6791C35.5583 34.1931 35.1643 33.7991 34.6783 33.7991Z" fill="white"/>
<path d="M34.6784 15.321H15.3214C14.8354 15.321 14.4414 15.715 14.4414 16.201C14.4414 16.6871 14.8354 17.081 15.3214 17.081H34.6784C35.1644 17.081 35.5584 16.6871 35.5584 16.201C35.5584 15.715 35.1644 15.321 34.6784 15.321Z" fill="white"/>
</svg>
