<svg width="60" height="60" viewBox="0 0 60 60" fill="none" xmlns="http://www.w3.org/2000/svg">
<path d="M60 30C60 13.4315 46.5685 0 30 0C13.4315 0 0 13.4315 0 30C0 46.5685 13.4315 60 30 60C46.5685 60 60 46.5685 60 30Z" fill="#EFF6FF"/>
<path d="M16.7466 38.4339C16.9835 36.6514 17.8603 35.0157 19.2136 33.8315C20.5668 32.6473 22.3043 31.9953 24.1026 31.9969H27.9026C29.7001 31.9963 31.4367 32.6487 32.7891 33.8328C34.1415 35.0169 35.0177 36.652 35.2546 38.4339C35.2963 38.7596 35.317 39.0876 35.3166 39.4159C35.3155 39.7423 35.1854 40.0551 34.9546 40.2859C34.7238 40.5167 34.411 40.6468 34.0846 40.6479H17.9206C17.5935 40.6479 17.2797 40.5182 17.048 40.2873C16.8163 40.0564 16.6856 39.743 16.6846 39.4159C16.6841 39.0876 16.7048 38.7596 16.7466 38.4339ZM20.6786 24.6739C20.6786 23.6205 20.9909 22.5908 21.5762 21.7149C22.1614 20.8391 22.9932 20.1564 23.9664 19.7533C24.9396 19.3502 26.0105 19.2447 27.0436 19.4502C28.0768 19.6557 29.0258 20.163 29.7706 20.9079C30.5155 21.6527 31.0227 22.6017 31.2282 23.6349C31.4337 24.668 31.3283 25.7389 30.9252 26.7121C30.522 27.6853 29.8394 28.5171 28.9635 29.1023C28.0877 29.6875 27.058 29.9999 26.0046 29.9999C24.592 29.9999 23.2373 29.4388 22.2385 28.44C21.2397 27.4411 20.6786 26.0864 20.6786 24.6739ZM29.3336 24.6739C29.3336 24.0155 29.1383 23.3719 28.7725 22.8244C28.4067 22.277 27.8868 21.8503 27.2785 21.5983C26.6702 21.3463 26.0009 21.2804 25.3551 21.4089C24.7094 21.5373 24.1162 21.8544 23.6506 22.3199C23.1851 22.7855 22.868 23.3787 22.7395 24.0244C22.6111 24.6702 22.677 25.3396 22.929 25.9479C23.1809 26.5562 23.6076 27.0761 24.1551 27.4419C24.7025 27.8077 25.3462 28.0029 26.0046 28.0029C26.8875 28.0029 27.7342 27.6522 28.3585 27.0279C28.9828 26.4036 29.3336 25.5568 29.3336 24.6739ZM24.1036 33.9939C23.1609 33.9934 22.2345 34.2387 21.4156 34.7057C20.5968 35.1727 19.914 35.8453 19.4346 36.6569C19.0695 37.2699 18.8314 37.95 18.7346 38.6569H33.2776C33.2606 38.5449 33.2446 38.4359 33.2196 38.3239C33.1004 37.7367 32.8823 37.174 32.5746 36.6599C32.0953 35.8484 31.4126 35.176 30.594 34.709C29.7753 34.242 28.849 33.9965 27.9066 33.9969L24.1036 33.9939ZM42.0366 40.6479H36.3366C36.5459 40.2697 36.6547 39.8442 36.6526 39.4119C36.6538 38.1266 36.3714 36.8568 35.8255 35.6932C35.2796 34.5295 34.4837 33.5006 33.4946 32.6799C33.6736 32.6629 33.8566 32.6589 34.0436 32.6589H36.5986C37.4799 32.6589 38.3526 32.8325 39.1668 33.1697C39.981 33.507 40.7208 34.0013 41.344 34.6245C41.9671 35.2477 42.4615 35.9875 42.7987 36.8017C43.136 37.6159 43.3096 38.4886 43.3096 39.3699C43.3096 39.708 43.1756 40.0323 42.937 40.2718C42.6984 40.5114 42.3747 40.6466 42.0366 40.6479ZM34.6596 29.9999C34.0464 30.0005 33.4392 29.8799 32.8729 29.6449C32.3065 29.41 31.7922 29.0653 31.3596 28.6309C32.1021 27.6253 32.5466 26.431 32.6423 25.1846C32.738 23.9382 32.4809 22.6901 31.9006 21.5829C32.4942 21.1467 33.1828 20.8574 33.9098 20.7388C34.6368 20.6201 35.3817 20.6755 36.0832 20.9003C36.7847 21.1252 37.4229 21.5131 37.9455 22.0322C38.4681 22.5514 38.8602 23.1871 39.0897 23.8871C39.3191 24.5871 39.3794 25.3315 39.2655 26.0593C39.1517 26.7871 38.8669 27.4776 38.4346 28.0741C38.0023 28.6706 37.4348 29.1561 36.7786 29.4908C36.1224 29.8256 35.3962 30.0001 34.6596 29.9999Z" fill="#4B6790"/>
</svg>
