<svg width="60" height="60" viewBox="0 0 60 60" fill="none" xmlns="http://www.w3.org/2000/svg">
<path d="M60 30C60 13.4315 46.5685 0 30 0C13.4315 0 0 13.4315 0 30C0 46.5685 13.4315 60 30 60C46.5685 60 60 46.5685 60 30Z" fill="#EFF6FF"/>
<path d="M22.0058 21.342C22.0058 20.9465 21.8885 20.5598 21.6687 20.2309C21.4489 19.902 21.1366 19.6457 20.7711 19.4943C20.4057 19.3429 20.0035 19.3033 19.6156 19.3805C19.2276 19.4576 18.8712 19.6481 18.5915 19.9278C18.3118 20.2075 18.1214 20.5639 18.0442 20.9519C17.967 21.3398 18.0066 21.742 18.158 22.1074C18.3094 22.4729 18.5657 22.7852 18.8946 23.005C19.2235 23.2247 19.6102 23.342 20.0058 23.342C20.5362 23.342 21.0449 23.1313 21.42 22.7563C21.795 22.3812 22.0058 21.8725 22.0058 21.342ZM41.3238 22.673V25.342H36.6608V22.673H41.3238ZM28.0008 20.673C27.4703 20.673 26.9616 20.8838 26.5865 21.2588C26.2115 21.6339 26.0008 22.1426 26.0008 22.673V25.342C26.0008 25.8725 26.2115 26.3812 26.5865 26.7563C26.9616 27.1313 27.4703 27.342 28.0008 27.342H41.3238C41.8542 27.342 42.3629 27.1313 42.738 26.7563C43.113 26.3812 43.3238 25.8725 43.3238 25.342V22.673C43.3238 22.1426 43.113 21.6339 42.738 21.2588C42.3629 20.8838 41.8542 20.673 41.3238 20.673H28.0008ZM41.3238 34.663V37.328H31.3318V34.663H41.3238ZM28.0008 32.663C27.4703 32.663 26.9616 32.8738 26.5865 33.2488C26.2115 33.6239 26.0008 34.1326 26.0008 34.663V37.328C26.0008 37.8585 26.2115 38.3672 26.5865 38.7423C26.9616 39.1173 27.4703 39.328 28.0008 39.328H41.3238C41.8542 39.328 42.3629 39.1173 42.738 38.7423C43.113 38.3672 43.3238 37.8585 43.3238 37.328V34.663C43.3238 34.1326 43.113 33.6239 42.738 33.2488C42.3629 32.8738 41.8542 32.663 41.3238 32.663H28.0008ZM19.3418 24.671C18.6351 24.6716 17.9576 24.9525 17.4579 25.4522C16.9582 25.9519 16.6773 26.6294 16.6768 27.336C16.6766 27.511 16.711 27.6843 16.7779 27.8459C16.8448 28.0076 16.9429 28.1545 17.0666 28.2782C17.1903 28.4019 17.3372 28.5 17.4989 28.5669C17.6605 28.6338 17.8338 28.6682 18.0088 28.668H22.0088C22.3616 28.6675 22.6998 28.5269 22.949 28.2771C23.1982 28.0274 23.338 27.6889 23.3378 27.336C23.3372 26.6301 23.0568 25.9532 22.558 25.4536C22.0592 24.954 21.3827 24.6726 20.6768 24.671H19.3418ZM22.0068 33.331C22.0068 32.9355 21.8895 32.5488 21.6697 32.2199C21.4499 31.891 21.1376 31.6347 20.7721 31.4833C20.4067 31.3319 20.0045 31.2923 19.6166 31.3695C19.2286 31.4466 18.8722 31.6371 18.5925 31.9168C18.3128 32.1965 18.1224 32.5529 18.0452 32.9409C17.968 33.3288 18.0076 33.731 18.159 34.0964C18.3104 34.4619 18.5667 34.7742 18.8956 34.994C19.2245 35.2137 19.6112 35.331 20.0068 35.331C20.537 35.3308 21.0455 35.1199 21.4203 34.7449C21.7952 34.3699 22.0068 33.8613 22.0068 33.331ZM19.3418 36.661C18.6351 36.6616 17.9576 36.9425 17.4579 37.4422C16.9582 37.9419 16.6773 38.6194 16.6768 39.326C16.6766 39.501 16.711 39.6743 16.7779 39.8359C16.8448 39.9976 16.9429 40.1445 17.0666 40.2682C17.1903 40.3919 17.3372 40.49 17.4989 40.5569C17.6605 40.6238 17.8338 40.6582 18.0088 40.658H22.0088C22.1837 40.6582 22.357 40.6238 22.5186 40.5569C22.6803 40.49 22.8272 40.3919 22.9509 40.2682C23.0746 40.1445 23.1727 39.9976 23.2396 39.8359C23.3065 39.6743 23.3409 39.501 23.3408 39.326C23.3402 38.6196 23.0594 37.9422 22.56 37.4425C22.0605 36.9429 21.3832 36.6618 20.6768 36.661H19.3418Z" fill="#4B6790"/>
</svg>
