<svg width="60" height="60" viewBox="0 0 60 60" fill="none" xmlns="http://www.w3.org/2000/svg">
<path d="M30 60C46.5685 60 60 46.5685 60 30C60 13.4315 46.5685 0 30 0C13.4315 0 0 13.4315 0 30C0 46.5685 13.4315 60 30 60Z" fill="black" fill-opacity="0.5"/>
<path d="M29.9995 15.5471C30.943 15.5484 31.8842 15.6392 32.8105 15.8181C33.1541 15.8724 33.4813 16.0023 33.7684 16.1987C34.0555 16.395 34.2953 16.6527 34.4705 16.9531C34.5861 17.1627 34.6735 17.3867 34.7305 17.6191L35.2555 19.7931C35.3336 19.9762 35.4688 20.129 35.6409 20.2289C35.8131 20.3287 36.0129 20.3702 36.2105 20.3471L38.3555 19.7151C38.5794 19.6488 38.8111 19.6129 39.0445 19.6081C39.394 19.6088 39.7388 19.6872 40.0543 19.8375C40.3697 19.9877 40.6478 20.2062 40.8685 20.4771C42.118 21.8999 43.0752 23.5547 43.6855 25.3471C43.8096 25.671 43.8603 26.0184 43.8341 26.3642C43.8078 26.71 43.7051 27.0457 43.5335 27.3471C43.4073 27.5537 43.2554 27.7436 43.0815 27.9121L41.4615 29.4531C41.3462 29.6133 41.2841 29.8057 41.2841 30.0031C41.2841 30.2005 41.3462 30.3929 41.4615 30.5531L43.0815 32.0941C43.2554 32.2627 43.4073 32.4525 43.5335 32.6591C43.7025 32.9615 43.8036 33.297 43.8298 33.6424C43.856 33.9877 43.8068 34.3347 43.6855 34.6591C43.0741 36.4517 42.117 38.1069 40.8685 39.5311C40.6474 39.8015 40.3692 40.0196 40.0538 40.1698C39.7385 40.3201 39.3938 40.3987 39.0445 40.4001C38.8114 40.3926 38.58 40.3567 38.3555 40.2931L36.2105 39.6551C36.0132 39.6322 35.8137 39.6736 35.6418 39.7733C35.4698 39.8729 35.3347 40.0255 35.2565 40.2081L34.7315 42.3821C34.6755 42.6149 34.588 42.839 34.4715 43.0481C34.2943 43.3469 34.0539 43.6032 33.7671 43.7993C33.4804 43.9954 33.1542 44.1264 32.8115 44.1831C30.9546 44.5444 29.0455 44.5444 27.1885 44.1831C26.845 44.1289 26.5178 43.9989 26.2307 43.8026C25.9436 43.6063 25.7037 43.3486 25.5285 43.0481C25.413 42.8385 25.3256 42.6146 25.2685 42.3821L24.7435 40.2081C24.6653 40.0255 24.5302 39.8729 24.3583 39.7733C24.1864 39.6736 23.9869 39.6322 23.7895 39.6551L21.6445 40.2871C21.4207 40.3534 21.189 40.3894 20.9555 40.3941C20.6061 40.3934 20.2612 40.3151 19.9458 40.1648C19.6304 40.0145 19.3522 39.796 19.1315 39.5251C17.8823 38.1004 16.924 36.4449 16.3105 34.6521C16.1865 34.3282 16.1357 33.9809 16.162 33.6351C16.1883 33.2892 16.2909 32.9535 16.4625 32.6521C16.5888 32.4455 16.7407 32.2557 16.9145 32.0871L18.5385 30.5471C18.6539 30.3869 18.716 30.1945 18.716 29.9971C18.716 29.7997 18.6539 29.6073 18.5385 29.4471L16.9105 27.9061C16.7367 27.7376 16.5848 27.5477 16.4585 27.3411C16.2887 27.0401 16.1874 26.7053 16.1618 26.3607C16.1362 26.016 16.187 25.6699 16.3105 25.3471C16.922 23.5546 17.879 21.8993 19.1275 20.4751C19.3487 20.2048 19.6269 19.9867 19.9423 19.8364C20.2576 19.6862 20.6022 19.6075 20.9515 19.6061C21.1847 19.6137 21.4161 19.6496 21.6405 19.7131L23.7855 20.3451C23.9829 20.368 24.1824 20.3266 24.3543 20.227C24.5262 20.1273 24.6613 19.9748 24.7395 19.7921L25.2645 17.6181C25.3206 17.3853 25.4081 17.1613 25.5245 16.9521C25.7023 16.6531 25.9434 16.3966 26.2309 16.2007C26.5183 16.0048 26.8452 15.8742 27.1885 15.8181C28.1149 15.6392 29.0561 15.5484 29.9995 15.5471ZM27.8605 18.4471L27.3805 20.4291C27.1224 21.3322 26.5235 22.0997 25.7102 22.5695C24.8969 23.0393 23.9328 23.1747 23.0215 22.9471L21.0735 22.3711C20.1379 23.466 19.4108 24.7231 18.9285 26.0801L20.4105 27.4881C21.0624 28.1621 21.4268 29.063 21.4268 30.0006C21.4268 30.9382 21.0624 31.8392 20.4105 32.5131L18.9315 33.9191C19.4138 35.2762 20.1409 36.5333 21.0765 37.6281L23.0295 37.0521C23.9408 36.824 24.9051 36.9592 25.7186 37.4291C26.532 37.899 27.1309 38.6667 27.3885 39.5701L27.8655 41.5471C29.2826 41.8012 30.7335 41.8012 32.1505 41.5471L32.6305 39.5651C32.8887 38.662 33.4876 37.8946 34.3009 37.4247C35.1142 36.9549 36.0783 36.8195 36.9895 37.0471L38.9425 37.6231C39.8782 36.5283 40.6052 35.2712 41.0875 33.9141L39.6105 32.5131C38.9587 31.8392 38.5943 30.9382 38.5943 30.0006C38.5943 29.063 38.9587 28.1621 39.6105 27.4881L41.0895 26.0821C40.6072 24.7251 39.8802 23.468 38.9445 22.3731L36.9895 22.9471C36.0785 23.1753 35.1145 23.0404 34.3011 22.5709C33.4877 22.1014 32.8886 21.3341 32.6305 20.4311L32.1505 18.4471C30.7335 18.1931 29.2826 18.1931 27.8655 18.4471H27.8605ZM27.2905 29.9981C27.2905 30.5341 27.4495 31.0581 27.7473 31.5037C28.045 31.9494 28.4683 32.2967 28.9635 32.5018C29.4587 32.7069 30.0035 32.7606 30.5292 32.656C31.0549 32.5515 31.5378 32.2934 31.9168 31.9144C32.2958 31.5354 32.5539 31.0525 32.6585 30.5268C32.763 30.0011 32.7094 29.4562 32.5043 28.961C32.2991 28.4659 31.9518 28.0426 31.5061 27.7448C31.0605 27.4471 30.5365 27.2881 30.0005 27.2881C29.6444 27.288 29.2917 27.3581 28.9627 27.4943C28.6337 27.6306 28.3347 27.8303 28.0829 28.0822C27.8311 28.3341 27.6315 28.6331 27.4953 28.9622C27.3592 29.2913 27.2893 29.644 27.2895 30.0001L27.2905 29.9981ZM30.0005 35.4181C28.9286 35.4181 27.8807 35.1002 26.9893 34.5047C26.098 33.9091 25.4033 33.0626 24.9931 32.0723C24.5829 31.0819 24.4755 29.9921 24.6847 28.9407C24.8938 27.8894 25.41 26.9236 26.168 26.1656C26.926 25.4076 27.8918 24.8914 28.9431 24.6823C29.9945 24.4731 31.0843 24.5805 32.0747 24.9907C33.0651 25.4009 33.9115 26.0956 34.5071 26.9869C35.1027 27.8782 35.4205 28.9261 35.4205 29.9981C35.4208 30.7101 35.2808 31.4152 35.0084 32.0731C34.7361 32.731 34.3368 33.3288 33.8334 33.8323C33.33 34.3358 32.7323 34.7352 32.0745 35.0076C31.4166 35.2801 30.7116 35.4202 29.9995 35.4201L30.0005 35.4181Z" fill="white"/>
</svg>
