<svg width="96" height="60" viewBox="0 0 96 60" fill="none" xmlns="http://www.w3.org/2000/svg">
<path d="M66 0H30C13.4315 0 0 13.4315 0 30C0 46.5685 13.4315 60 30 60H66C82.5685 60 96 46.5685 96 30C96 13.4315 82.5685 0 66 0Z" fill="#EFF6FF"/>
<path d="M73.1972 34.2256C73.1066 34.3166 72.9989 34.3888 72.8804 34.4381C72.7618 34.4874 72.6346 34.5127 72.5062 34.5127C72.3778 34.5127 72.2507 34.4874 72.1321 34.4381C72.0135 34.3888 71.9058 34.3166 71.8152 34.2256L65.2862 27.7006C65.1955 27.6098 65.1235 27.5021 65.0744 27.3835C65.0253 27.265 65 27.1379 65 27.0096C65 26.7504 65.103 26.5018 65.2862 26.3186C65.4695 26.1353 65.718 26.0324 65.9772 26.0324C66.2364 26.0324 66.485 26.1353 66.6682 26.3186L72.4992 32.1496L78.3342 26.3146C78.4236 26.2178 78.5315 26.1401 78.6517 26.086C78.7718 26.032 78.9016 26.0028 79.0333 26.0002C79.165 25.9976 79.2959 26.0216 79.418 26.0708C79.5402 26.1199 79.6512 26.1933 79.7444 26.2864C79.8375 26.3796 79.9109 26.4906 79.96 26.6128C80.0092 26.7349 80.0332 26.8658 80.0306 26.9975C80.028 27.1292 79.9988 27.259 79.9448 27.3791C79.8907 27.4993 79.813 27.6072 79.7162 27.6966L73.1972 34.2256Z" fill="black"/>
<path d="M25.6068 24.53C25.4476 24.53 25.295 24.5932 25.1825 24.7057C25.07 24.8182 25.0068 24.9709 25.0068 25.13V34.712C25.0068 34.8711 25.07 35.0237 25.1825 35.1362C25.295 35.2488 25.4476 35.312 25.6068 35.312H35.1538C35.3129 35.312 35.4655 35.2488 35.578 35.1362C35.6905 35.0237 35.7538 34.8711 35.7538 34.712V25.13C35.7538 24.9709 35.6905 24.8182 35.578 24.7057C35.4655 24.5932 35.3129 24.53 35.1538 24.53H25.6068ZM23.2198 25.13C23.2188 24.8156 23.2799 24.5042 23.3993 24.2135C23.5188 23.9227 23.6944 23.6583 23.9161 23.4355C24.1377 23.2126 24.4011 23.0356 24.6912 22.9145C24.9813 22.7935 25.2924 22.7308 25.6068 22.73H35.1538C35.4681 22.7308 35.7792 22.7935 36.0693 22.9145C36.3594 23.0356 36.6228 23.2126 36.8445 23.4355C37.0661 23.6583 37.2417 23.9227 37.3612 24.2135C37.4807 24.5042 37.5417 24.8156 37.5408 25.13V34.712C37.5417 35.0263 37.4807 35.3378 37.3612 35.6285C37.2417 35.9193 37.0661 36.1836 36.8445 36.4065C36.6228 36.6294 36.3594 36.8064 36.0693 36.9274C35.7792 37.0485 35.4681 37.1112 35.1538 37.112H25.6068C25.292 37.1112 24.9805 37.0483 24.6901 36.927C24.3996 36.8056 24.136 36.6281 23.9143 36.4047C23.6925 36.1813 23.5171 35.9164 23.3979 35.625C23.2787 35.3337 23.2182 35.0217 23.2198 34.707V25.13ZM42.9108 33.941V25.9L38.7338 27.783V25.814L42.6238 24.059C42.8483 23.9575 43.0948 23.914 43.3405 23.9325C43.5863 23.9511 43.8234 24.0311 44.0302 24.1652C44.2369 24.2993 44.4067 24.4832 44.5239 24.7C44.641 24.9168 44.7019 25.1595 44.7008 25.406V34.43C44.7017 34.6767 44.6405 34.9197 44.5229 35.1366C44.4053 35.3534 44.2351 35.5373 44.0278 35.6711C43.8206 35.805 43.583 35.8845 43.3369 35.9025C43.0909 35.9205 42.8443 35.8763 42.6198 35.774L38.7298 34.019V32.05L42.9108 33.941Z" fill="#4B6790"/>
</svg>
