<svg width="60" height="60" viewBox="0 0 60 60" fill="none" xmlns="http://www.w3.org/2000/svg">
<path d="M30 60C46.5685 60 60 46.5685 60 30C60 13.4315 46.5685 0 30 0C13.4315 0 0 13.4315 0 30C0 46.5685 13.4315 60 30 60Z" fill="black" fill-opacity="0.5"/>
<path d="M27.4756 18.2131C29.3074 18.2131 31.0982 18.7563 32.6213 19.774C34.1444 20.7917 35.3316 22.2383 36.0326 23.9307C36.7336 25.6231 36.917 27.4854 36.5596 29.282C36.2023 31.0787 35.3201 32.729 34.0248 34.0243C32.7295 35.3196 31.0792 36.2017 29.2825 36.5591C27.4859 36.9165 25.6236 36.7331 23.9312 36.0321C22.2388 35.331 20.7922 34.1439 19.7745 32.6208C18.7568 31.0976 18.2136 29.3069 18.2136 27.4751C18.2136 25.0186 19.1894 22.6628 20.9264 20.9259C22.6633 19.1889 25.0192 18.2131 27.4756 18.2131ZM27.4756 38.4221C30.0881 38.428 32.6155 37.4941 34.5966 35.7911L42.0376 43.2291C42.1955 43.387 42.4097 43.4757 42.6331 43.4757C42.8565 43.4757 43.0707 43.387 43.2286 43.2291C43.3865 43.0711 43.4753 42.8569 43.4753 42.6336C43.4753 42.4102 43.3865 42.196 43.2286 42.0381L35.7926 34.5961C37.4165 32.7001 38.3436 30.306 38.4201 27.8108C38.4967 25.3156 37.7181 22.8691 36.2135 20.8771C34.7089 18.8851 32.5686 17.4672 30.1476 16.8585C27.7265 16.2498 25.1702 16.4868 22.9024 17.5303C20.6345 18.5738 18.7915 20.3611 17.6788 22.5958C16.5661 24.8305 16.2506 27.3784 16.7847 29.8169C17.3187 32.2555 18.6702 34.4383 20.615 36.0035C22.5599 37.5686 24.9812 38.4219 27.4776 38.4221H27.4756ZM26.6286 32.5291C26.6286 32.6397 26.6504 32.7491 26.6927 32.8513C26.735 32.9535 26.797 33.0463 26.8752 33.1245C26.9534 33.2027 27.0462 33.2647 27.1484 33.307C27.2505 33.3493 27.36 33.3711 27.4706 33.3711C27.5812 33.3711 27.6907 33.3493 27.7928 33.307C27.895 33.2647 27.9878 33.2027 28.066 33.1245C28.1442 33.0463 28.2062 32.9535 28.2485 32.8513C28.2908 32.7491 28.3126 32.6397 28.3126 32.5291V28.3191H32.5286C32.7527 28.3191 32.9676 28.2301 33.1261 28.0716C33.2846 27.9131 33.3736 27.6982 33.3736 27.4741C33.3736 27.25 33.2846 27.035 33.1261 26.8766C32.9676 26.7181 32.7527 26.6291 32.5286 26.6291H28.3186V22.4231C28.3186 22.1998 28.2299 21.9856 28.072 21.8277C27.9141 21.6698 27.6999 21.5811 27.4766 21.5811C27.2533 21.5811 27.0391 21.6698 26.8812 21.8277C26.7233 21.9856 26.6346 22.1998 26.6346 22.4231V26.6291H22.4226C22.1993 26.6291 21.9851 26.7178 21.8272 26.8757C21.6693 27.0336 21.5806 27.2478 21.5806 27.4711C21.5806 27.6944 21.6693 27.9086 21.8272 28.0665C21.9851 28.2244 22.1993 28.3131 22.4226 28.3131H26.6286V32.5291Z" fill="white"/>
</svg>
