<svg width="20" height="20" viewBox="0 0 20 20" fill="none" xmlns="http://www.w3.org/2000/svg">
<path d="M9.99992 2.14307C10.13 2.14359 10.2546 2.19549 10.3465 2.28746C10.4385 2.37943 10.4904 2.50401 10.4909 2.63407V17.3671C10.4909 17.4973 10.4392 17.6222 10.3471 17.7143C10.255 17.8063 10.1301 17.8581 9.99992 17.8581C9.8697 17.8581 9.74481 17.8063 9.65273 17.7143C9.56065 17.6222 9.50892 17.4973 9.50892 17.3671V2.63407C9.50945 2.50401 9.56135 2.37943 9.65331 2.28746C9.74528 2.19549 9.86986 2.14359 9.99992 2.14307ZM15.8929 4.10707C16.023 4.10759 16.1476 4.15949 16.2395 4.25146C16.3315 4.34343 16.3834 4.46801 16.3839 4.59807V15.3981C16.3839 15.5283 16.3322 15.6532 16.2401 15.7453C16.148 15.8373 16.0231 15.8891 15.8929 15.8891C15.7627 15.8891 15.6378 15.8373 15.5457 15.7453C15.4537 15.6532 15.4019 15.5283 15.4019 15.3981V4.59807C15.4024 4.46801 15.4543 4.34343 15.5463 4.25146C15.6383 4.15949 15.7629 4.10759 15.8929 4.10707ZM7.05392 5.08907C7.18398 5.08959 7.30856 5.14149 7.40053 5.23346C7.4925 5.32543 7.5444 5.45001 7.54492 5.58007V14.4191C7.54492 14.5493 7.49319 14.6742 7.40111 14.7663C7.30903 14.8583 7.18414 14.9101 7.05392 14.9101C6.9237 14.9101 6.79881 14.8583 6.70673 14.7663C6.61465 14.6742 6.56292 14.5493 6.56292 14.4191V5.58107C6.56318 5.45101 6.61483 5.32632 6.70661 5.23416C6.79839 5.14201 6.92386 5.08986 7.05392 5.08907ZM12.9469 6.07107C13.077 6.07159 13.2016 6.12349 13.2935 6.21546C13.3855 6.30743 13.4374 6.43201 13.4379 6.56207V13.4371C13.4379 13.5673 13.3862 13.6922 13.2941 13.7843C13.202 13.8763 13.0771 13.9281 12.9469 13.9281C12.8167 13.9281 12.6918 13.8763 12.5997 13.7843C12.5077 13.6922 12.4559 13.5673 12.4559 13.4371V6.56307C12.4564 6.43318 12.5082 6.30875 12.6 6.21681C12.6917 6.12487 12.816 6.07286 12.9459 6.07207L12.9469 6.07107ZM4.10692 8.03607C4.23698 8.03659 4.36156 8.08849 4.45353 8.18046C4.5455 8.27243 4.5974 8.39701 4.59792 8.52707V11.4741C4.59792 11.6043 4.54619 11.7292 4.45411 11.8213C4.36203 11.9133 4.23714 11.9651 4.10692 11.9651C3.9767 11.9651 3.85181 11.9133 3.75973 11.8213C3.66765 11.7292 3.61592 11.6043 3.61592 11.4741V8.52707C3.61645 8.39701 3.66835 8.27243 3.76031 8.18046C3.85228 8.08849 3.97686 8.03659 4.10692 8.03607ZM1.16092 9.01807C1.29098 9.01859 1.41556 9.07049 1.50753 9.16246C1.5995 9.25443 1.6514 9.37901 1.65192 9.50907V10.4911C1.65192 10.6213 1.60019 10.7462 1.50811 10.8383C1.41603 10.9303 1.29114 10.9821 1.16092 10.9821C1.0307 10.9821 0.905813 10.9303 0.813732 10.8383C0.721652 10.7462 0.669922 10.6213 0.669922 10.4911V9.50907C0.670446 9.37918 0.722208 9.25475 0.813959 9.16281C0.90571 9.07087 1.03004 9.01886 1.15992 9.01807H1.16092ZM18.8399 9.01807C18.97 9.01859 19.0946 9.07049 19.1865 9.16246C19.2785 9.25443 19.3304 9.37901 19.3309 9.50907V10.4911C19.3309 10.6213 19.2792 10.7462 19.1871 10.8383C19.095 10.9303 18.9701 10.9821 18.8399 10.9821C18.7097 10.9821 18.5848 10.9303 18.4927 10.8383C18.4007 10.7462 18.3489 10.6213 18.3489 10.4911V9.50907C18.3494 9.37918 18.4012 9.25475 18.493 9.16281C18.5847 9.07087 18.709 9.01886 18.8389 9.01807H18.8399Z" fill="#1ACC8D"></path>
</svg>
