<svg width="60" height="60" viewBox="0 0 60 60" fill="none" xmlns="http://www.w3.org/2000/svg">
<path d="M60 30C60 13.4315 46.5685 0 30 0C13.4315 0 0 13.4315 0 30C0 46.5685 13.4315 60 30 60C46.5685 60 60 46.5685 60 30Z" fill="#EFF6FF"></path>
<path d="M39.884 29.9999C39.8838 28.0451 39.3039 26.1342 38.2177 24.509C37.1315 22.8837 35.5878 21.617 33.7817 20.869C31.9756 20.1211 29.9883 19.9255 28.0711 20.307C26.1538 20.6885 24.3928 21.6299 23.0106 23.0123C21.6284 24.3946 20.6871 26.1558 20.3058 28.073C19.9245 29.9903 20.1203 31.9776 20.8684 33.7836C21.6166 35.5896 22.8834 37.1332 24.5088 38.2193C26.1342 39.3053 28.0451 39.8849 30 39.8849C32.6215 39.8847 35.1355 38.8431 36.9891 36.9893C38.8426 35.1356 39.884 32.6214 39.884 29.9999ZM17.835 29.9999C17.8352 27.594 18.5488 25.2421 19.8856 23.2417C21.2224 21.2413 23.1224 19.6822 25.3453 18.7617C27.5682 17.8411 30.0141 17.6003 32.3738 18.0698C34.7336 18.5393 36.9011 19.698 38.6023 21.3993C40.3035 23.1007 41.462 25.2683 41.9313 27.628C42.4006 29.9878 42.1596 32.4337 41.2389 34.6565C40.3181 36.8793 38.7589 38.7792 36.7584 40.1158C34.7579 41.4525 32.4059 42.1659 30 42.1659C26.7735 42.1657 23.6793 40.8838 21.3979 38.6023C19.1166 36.3207 17.835 33.2264 17.835 29.9999ZM26.274 32.9509C26.7521 33.4596 27.3293 33.8649 27.97 34.142C28.6107 34.4191 29.3014 34.562 29.9995 34.562C30.6975 34.562 31.3882 34.4191 32.0289 34.142C32.6697 33.8649 33.2469 33.4596 33.725 32.9509C33.8264 32.8408 33.9485 32.7518 34.0844 32.6889C34.2203 32.626 34.3672 32.5904 34.5168 32.5843C34.6664 32.5782 34.8157 32.6016 34.9563 32.6531C35.0968 32.7047 35.2258 32.7835 35.336 32.8849C35.4461 32.9864 35.5351 33.1085 35.598 33.2444C35.6609 33.3803 35.6965 33.5272 35.7026 33.6768C35.7087 33.8264 35.6853 33.9757 35.6338 34.1163C35.5822 34.2568 35.5034 34.3858 35.402 34.4959C34.7114 35.2373 33.8755 35.8285 32.9465 36.2327C32.0175 36.637 31.0151 36.8456 30.002 36.8456C28.9888 36.8456 27.9865 36.637 27.0574 36.2327C26.1284 35.8285 25.2926 35.2373 24.602 34.4959C24.5005 34.3858 24.4218 34.2568 24.3702 34.1163C24.3186 33.9757 24.2952 33.8264 24.3013 33.6768C24.3074 33.5272 24.343 33.3803 24.4059 33.2444C24.4688 33.1085 24.5578 32.9864 24.668 32.8849C24.7781 32.7835 24.9071 32.7047 25.0476 32.6531C25.1882 32.6016 25.3375 32.5782 25.4871 32.5843C25.6367 32.5904 25.7836 32.626 25.9195 32.6889C26.0554 32.7518 26.1775 32.8408 26.279 32.9509H26.274ZM24.697 27.7179C24.697 27.4171 24.7862 27.123 24.9533 26.8729C25.1204 26.6228 25.358 26.4278 25.6359 26.3127C25.9138 26.1976 26.2196 26.1675 26.5147 26.2262C26.8097 26.2849 27.0808 26.4297 27.2935 26.6424C27.5062 26.8551 27.651 27.1262 27.7097 27.4212C27.7684 27.7163 27.7383 28.0221 27.6232 28.3C27.5081 28.5779 27.3131 28.8155 27.063 28.9826C26.8129 29.1497 26.5188 29.2389 26.218 29.2389C25.8146 29.2389 25.4277 29.0787 25.1425 28.7935C24.8572 28.5082 24.697 28.1213 24.697 27.7179ZM33.821 26.1969C34.1218 26.1969 34.4159 26.2861 34.666 26.4533C34.9161 26.6204 35.1111 26.858 35.2262 27.1359C35.3413 27.4138 35.3714 27.7196 35.3127 28.0147C35.254 28.3097 35.1092 28.5807 34.8965 28.7935C34.6838 29.0062 34.4127 29.151 34.1177 29.2097C33.8226 29.2684 33.5168 29.2383 33.2389 29.1232C32.961 29.008 32.7234 28.8131 32.5563 28.563C32.3892 28.3128 32.3 28.0188 32.3 27.7179C32.3002 27.3147 32.4606 26.9281 32.7458 26.6431C33.031 26.3581 33.4177 26.1969 33.821 26.1969Z" fill="#4B6790"></path>
</svg>
