<svg width="60" height="60" viewBox="0 0 60 60" fill="none" xmlns="http://www.w3.org/2000/svg">
<path d="M30 60C46.5685 60 60 46.5685 60 30C60 13.4315 46.5685 0 30 0C13.4315 0 0 13.4315 0 30C0 46.5685 13.4315 60 30 60Z" fill="black" fill-opacity="0.5"></path>
<path d="M25.5482 17.5339C25.7844 17.5339 26.0109 17.6278 26.1779 17.7948C26.3449 17.9618 26.4387 18.1883 26.4387 18.4244C26.4387 18.6606 26.3449 18.8871 26.1779 19.0541C26.0109 19.2211 25.7844 19.3149 25.5482 19.3149H19.3152V25.5479C19.3152 25.7841 19.2214 26.0106 19.0544 26.1776C18.8874 26.3446 18.6609 26.4384 18.4247 26.4384C18.1885 26.4384 17.962 26.3446 17.795 26.1776C17.628 26.0106 17.5342 25.7841 17.5342 25.5479V18.4239C17.535 18.1881 17.629 17.9622 17.7957 17.7955C17.9625 17.6287 18.1884 17.5347 18.4242 17.5339H25.5482ZM17.5342 34.4519C17.5342 34.2158 17.628 33.9893 17.795 33.8223C17.962 33.6553 18.1885 33.5614 18.4247 33.5614C18.6609 33.5614 18.8874 33.6553 19.0544 33.8223C19.2214 33.9893 19.3152 34.2158 19.3152 34.4519V40.6839H25.5482C25.7844 40.6839 26.0109 40.7778 26.1779 40.9448C26.3449 41.1118 26.4387 41.3383 26.4387 41.5744C26.4387 41.8106 26.3449 42.0371 26.1779 42.2041C26.0109 42.3711 25.7844 42.4649 25.5482 42.4649H18.4242C18.1884 42.4641 17.9625 42.3701 17.7957 42.2034C17.629 42.0367 17.535 41.8107 17.5342 41.5749V34.4519ZM41.5752 17.5339C41.811 17.5347 42.0369 17.6287 42.2036 17.7955C42.3704 17.9622 42.4644 18.1881 42.4652 18.4239V25.5469C42.4652 25.7831 42.3714 26.0096 42.2044 26.1766C42.0374 26.3436 41.8109 26.4374 41.5747 26.4374C41.3385 26.4374 41.112 26.3436 40.945 26.1766C40.778 26.0096 40.6842 25.7831 40.6842 25.5469V19.3149H34.4522C34.216 19.3149 33.9895 19.2211 33.8225 19.0541C33.6555 18.8871 33.5617 18.6606 33.5617 18.4244C33.5617 18.1883 33.6555 17.9618 33.8225 17.7948C33.9895 17.6278 34.216 17.5339 34.4522 17.5339H41.5752ZM40.6852 34.4519C40.6852 34.2158 40.779 33.9893 40.946 33.8223C41.113 33.6553 41.3395 33.5614 41.5757 33.5614C41.8119 33.5614 42.0384 33.6553 42.2054 33.8223C42.3724 33.9893 42.4662 34.2158 42.4662 34.4519V41.5749C42.4654 41.8107 42.3714 42.0367 42.2046 42.2034C42.0379 42.3701 41.812 42.4641 41.5762 42.4649H34.4522C34.216 42.4649 33.9895 42.3711 33.8225 42.2041C33.6555 42.0371 33.5617 41.8106 33.5617 41.5744C33.5617 41.3383 33.6555 41.1118 33.8225 40.9448C33.9895 40.7778 34.216 40.6839 34.4522 40.6839H40.6842L40.6852 34.4519Z" fill="white"></path>
</svg>
