<svg width="40" height="40" viewBox="0 0 40 40" fill="none" xmlns="http://www.w3.org/2000/svg">
<path d="M26.1009 23.049H18.7809C18.6193 23.0485 18.4644 22.984 18.3502 22.8697C18.2359 22.7555 18.1714 22.6006 18.1709 22.439V12.68C18.1714 12.5184 18.2359 12.3635 18.3502 12.2492C18.4644 12.135 18.6193 12.0705 18.7809 12.07H24.1219L26.7099 14.658V22.44C26.7091 22.6013 26.6447 22.7557 26.5307 22.8697C26.4166 22.9838 26.2622 23.0482 26.1009 23.049ZM18.7819 24.879H26.1009C26.7479 24.8785 27.3682 24.6212 27.8257 24.1637C28.2831 23.7063 28.5404 23.086 28.5409 22.439V14.658C28.5399 14.1731 28.3464 13.7084 28.0029 13.366L25.4179 10.778C25.0755 10.4346 24.6109 10.2411 24.1259 10.24H18.7809C18.1341 10.2408 17.5141 10.4981 17.0568 10.9556C16.5995 11.413 16.3424 12.0332 16.3419 12.68V22.44C16.3427 23.0866 16.5999 23.7065 17.0572 24.1637C17.5144 24.621 18.1343 24.8782 18.7809 24.879H18.7819ZM13.9019 15.12C13.2551 15.1205 12.635 15.3776 12.1775 15.8349C11.7201 16.2921 11.4627 16.9122 11.4619 17.559V27.318C11.4624 27.965 11.7197 28.5853 12.1772 29.0427C12.6346 29.5002 13.2549 29.7575 13.9019 29.758H21.2209C21.8679 29.7575 22.4882 29.5002 22.9457 29.0427C23.4031 28.5853 23.6604 27.965 23.6609 27.318V26.098H21.8309V27.318C21.8304 27.4796 21.7659 27.6345 21.6517 27.7487C21.5374 27.863 21.3825 27.9275 21.2209 27.928H13.9019C13.7403 27.9275 13.5854 27.863 13.4712 27.7487C13.3569 27.6345 13.2924 27.4796 13.2919 27.318V17.559C13.2924 17.3974 13.3569 17.2425 13.4712 17.1282C13.5854 17.014 13.7403 16.9495 13.9019 16.949H15.1219V15.12H13.9019Z" fill="#4B6790"></path>
</svg>
