<svg width="27" height="27" viewBox="0 0 27 27" fill="none" xmlns="http://www.w3.org/2000/svg">
<path d="M10.1482 5.73606C10.7008 5.73606 11.241 5.89993 11.7005 6.20693C12.1599 6.51394 12.518 6.95031 12.7295 7.46084C12.941 7.97138 12.9963 8.53316 12.8885 9.07514C12.7807 9.61713 12.5146 10.115 12.1239 10.5057C11.7331 10.8965 11.2353 11.1626 10.6933 11.2704C10.1513 11.3782 9.58951 11.3229 9.07898 11.1114C8.56844 10.8999 8.13208 10.5418 7.82507 10.0823C7.51806 9.62285 7.3542 9.08266 7.3542 8.53006C7.3542 7.78905 7.64856 7.07838 8.17254 6.5544C8.69652 6.03043 9.40718 5.73606 10.1482 5.73606ZM10.1482 13.0001C11.0323 13.0001 11.8965 12.7379 12.6316 12.2467C13.3667 11.7556 13.9396 11.0574 14.2779 10.2407C14.6163 9.42387 14.7048 8.5251 14.5323 7.65801C14.3598 6.79091 13.9341 5.99443 13.309 5.36929C12.6838 4.74415 11.8873 4.31843 11.0202 4.14595C10.1532 3.97347 9.25439 4.062 8.4376 4.40032C7.62081 4.73864 6.9227 5.31157 6.43153 6.04666C5.94036 6.78175 5.6782 7.64598 5.6782 8.53006C5.6782 9.71558 6.14914 10.8525 6.98743 11.6908C7.82572 12.5291 8.96268 13.0001 10.1482 13.0001ZM8.5482 16.3531H11.7442C12.8395 16.3533 13.898 16.7485 14.7255 17.4662C15.553 18.1838 16.094 19.1758 16.2492 20.2601H4.0472C4.2024 19.1758 4.74337 18.1838 5.57086 17.4662C6.39835 16.7485 7.45686 16.3533 8.5522 16.3531H8.5482ZM8.5482 14.6771C6.8974 14.6776 5.31441 15.3338 4.1474 16.5014C2.98038 17.669 2.32493 19.2523 2.3252 20.9031C2.3252 21.1781 2.43445 21.4419 2.62893 21.6363C2.8234 21.8308 3.08717 21.9401 3.3622 21.9401H16.9332C17.2082 21.9401 17.472 21.8308 17.6665 21.6363C17.8609 21.4419 17.9702 21.1781 17.9702 20.9031C17.9705 20.0852 17.8096 19.2754 17.4967 18.5198C17.1839 17.7642 16.7252 17.0776 16.1469 16.4993C15.5687 15.921 14.8821 15.4624 14.1265 15.1495C13.3709 14.8367 12.561 14.6758 11.7432 14.6761L8.5482 14.6771ZM19.9252 14.9601C19.9252 15.1823 20.0135 15.3955 20.1706 15.5526C20.3278 15.7098 20.5409 15.7981 20.7632 15.7981C20.9854 15.7981 21.1986 15.7098 21.3558 15.5526C21.5129 15.3955 21.6012 15.1823 21.6012 14.9601V12.7211H23.8362C24.0584 12.7211 24.2716 12.6328 24.4288 12.4756C24.5859 12.3185 24.6742 12.1053 24.6742 11.8831C24.6742 11.6608 24.5859 11.4477 24.4288 11.2905C24.2716 11.1333 24.0584 11.0451 23.8362 11.0451H21.6022V8.80906C21.6022 8.69901 21.5805 8.59004 21.5384 8.48837C21.4963 8.3867 21.4346 8.29432 21.3568 8.21651C21.2789 8.13869 21.1866 8.07696 21.0849 8.03485C20.9832 7.99274 20.8742 7.97106 20.7642 7.97106C20.6541 7.97106 20.5452 7.99274 20.4435 8.03485C20.3418 8.07696 20.2495 8.13869 20.1716 8.21651C20.0938 8.29432 20.0321 8.3867 19.99 8.48837C19.9479 8.59004 19.9262 8.69901 19.9262 8.80906V11.0451H17.6912C17.5811 11.0451 17.4722 11.0667 17.3705 11.1088C17.2688 11.151 17.1765 11.2127 17.0986 11.2905C17.0208 11.3683 16.9591 11.4607 16.917 11.5624C16.8749 11.664 16.8532 11.773 16.8532 11.8831C16.8532 11.9931 16.8749 12.1021 16.917 12.2037C16.9591 12.3054 17.0208 12.3978 17.0986 12.4756C17.1765 12.5534 17.2688 12.6152 17.3705 12.6573C17.4722 12.6994 17.5811 12.7211 17.6912 12.7211H19.9252V14.9601Z" fill="white"></path>
</svg>
