<svg width="225" height="40" viewBox="0 0 225 40" fill="none" xmlns="http://www.w3.org/2000/svg">
<path d="M221.164 28.7599C220.711 28.7704 220.261 28.69 219.839 28.5234C219.418 28.3568 219.034 28.1074 218.711 27.7899C218.383 27.4731 218.124 27.0912 217.952 26.6686C217.78 26.246 217.698 25.792 217.711 25.3359C217.693 24.8807 217.772 24.4268 217.941 24.0039C218.111 23.581 218.368 23.1987 218.695 22.8819C219.378 22.2767 220.259 21.9425 221.172 21.9425C222.084 21.9425 222.965 22.2767 223.648 22.8819C223.971 23.201 224.225 23.5841 224.392 24.0066C224.558 24.4292 224.635 24.882 224.617 25.3359C224.631 25.7908 224.551 26.2436 224.381 26.6659C224.212 27.0882 223.957 27.4709 223.632 27.7899C223.307 28.1099 222.921 28.3607 222.497 28.5275C222.073 28.6942 221.62 28.7732 221.164 28.7599ZM6.057 0.503906H34.357C35.9627 0.509186 37.501 1.14971 38.6359 2.28556C39.7708 3.4214 40.41 4.96025 40.414 6.56591V24.7459C40.409 26.351 39.7691 27.889 38.6341 29.024C37.4991 30.159 35.9611 30.7989 34.356 30.8039H19.81C16.603 33.3989 11.562 37.4939 10.493 38.4469C8.893 39.8699 8.51 38.9649 8.51 38.9649L8.549 30.8039H6.057C4.45152 30.7986 2.91335 30.1582 1.77847 29.0226C0.643592 27.887 0.00421839 26.3484 0 24.7429V6.56091C0.0052729 4.95611 0.645112 3.41855 1.77988 2.28379C2.91465 1.14902 4.45221 0.509179 6.057 0.503906ZM10.399 18.6559V19.1819C10.465 20.114 10.8952 20.9827 11.5965 21.6002C12.2979 22.2177 13.214 22.5344 14.147 22.4819H24.641C24.8278 22.4924 25.0112 22.4289 25.1515 22.3052C25.2919 22.1815 25.3779 22.0075 25.391 21.8209V19.5609L28.984 22.2479C28.984 22.2479 30.37 23.0989 30.452 21.7069V9.65091C30.37 8.25891 28.984 9.10991 28.984 9.10991L25.391 11.7979V9.65491C25.3779 9.46829 25.2919 9.29433 25.1515 9.17064C25.0112 9.04695 24.8278 8.98346 24.641 8.99391H14.147C13.214 8.94139 12.2979 9.25812 11.5965 9.87562C10.8952 10.4931 10.465 11.3618 10.399 12.2939V18.6479V18.6559ZM210.806 14.0339C211.403 13.2777 212.193 12.6966 213.093 12.3519C214.123 11.9622 215.218 11.7721 216.319 11.7919V16.9729C215.888 16.9187 215.454 16.8883 215.019 16.8819C213.961 16.8201 212.921 17.1796 212.127 17.8819C211.752 18.293 211.466 18.7768 211.286 19.3032C211.107 19.8297 211.037 20.3875 211.082 20.9419V28.4869H205.327V12.0649H210.81L210.806 14.0339ZM201.628 12.0649V28.4869H196.146V26.7299C195.544 27.3941 194.798 27.9122 193.965 28.2449C193.107 28.5904 192.19 28.7653 191.265 28.7599C190.336 28.8054 189.408 28.6624 188.536 28.3395C187.664 28.0165 186.867 27.5204 186.192 26.8809C184.93 25.6289 184.299 23.7502 184.299 21.2449V12.0649H190.054V20.3039C189.975 21.2572 190.222 22.209 190.754 23.0039C191.004 23.2922 191.317 23.5187 191.669 23.6658C192.021 23.813 192.402 23.8766 192.783 23.8519C193.201 23.8651 193.617 23.7865 194.002 23.6217C194.386 23.4569 194.73 23.2098 195.009 22.8979C195.648 22.0635 195.956 21.0218 195.872 19.9739V12.0649H201.628ZM172.428 24.1849C172.893 24.1994 173.355 24.1136 173.784 23.9333C174.213 23.753 174.597 23.4823 174.912 23.1399C175.597 22.3367 175.945 21.2998 175.884 20.2459C175.945 19.2065 175.597 18.1846 174.915 17.3979C174.589 17.0714 174.202 16.8123 173.776 16.6356C173.35 16.4589 172.893 16.3679 172.432 16.3679C171.97 16.3679 171.513 16.4589 171.087 16.6356C170.661 16.8123 170.274 17.0714 169.948 17.3979C169.266 18.1846 168.918 19.2065 168.979 20.2459C168.917 21.2994 169.264 22.3362 169.948 23.1399C170.262 23.482 170.647 23.7523 171.075 23.9327C171.503 24.113 171.964 24.199 172.428 24.1849ZM172.428 28.7599C170.778 28.7847 169.146 28.4104 167.672 27.6689C166.294 26.9863 165.138 25.9261 164.339 24.612C163.54 23.2978 163.131 21.7837 163.159 20.2459C163.135 18.7165 163.545 17.2117 164.342 15.9059C165.138 14.6 166.288 13.5467 167.659 12.8679C169.152 12.1598 170.784 11.7924 172.437 11.7924C174.09 11.7924 175.722 12.1598 177.215 12.8679C178.575 13.5375 179.719 14.5773 180.515 15.8679C181.312 17.1872 181.722 18.7046 181.696 20.2459C181.72 21.7921 181.311 23.3143 180.515 24.6399C179.721 25.9391 178.577 26.989 177.215 27.6699C175.731 28.4132 174.088 28.7872 172.428 28.7599ZM160.222 7.27791V28.4879H154.222V20.2149H146.044V28.4869H140.044V7.27791H146.044V15.2469H154.222V7.27791H160.222ZM128.751 27.8209C128.203 28.1503 127.604 28.3868 126.979 28.5209C126.249 28.6861 125.502 28.7673 124.753 28.7629C122.967 28.8814 121.203 28.3182 119.816 27.1869C119.209 26.5724 118.741 25.835 118.443 25.0242C118.145 24.2134 118.024 23.3482 118.089 22.4869V16.9729H115.696V12.6729H118.089V8.39891H123.844V12.6709H127.6V16.9709H123.844V22.4249C123.815 22.9281 123.983 23.423 124.313 23.8039C124.475 23.9718 124.671 24.1032 124.888 24.1894C125.104 24.2756 125.337 24.3146 125.57 24.3039C126.195 24.3164 126.808 24.1366 127.327 23.7889L128.751 27.8209ZM106.004 15.8819C105.194 15.8548 104.403 16.1244 103.778 16.6399C103.167 17.1716 102.764 17.903 102.642 18.7039H109.366C109.243 17.9045 108.84 17.1746 108.23 16.6439C107.606 16.127 106.814 15.856 106.004 15.8819ZM114.758 20.3059C114.758 20.3466 114.728 20.8212 114.667 21.7299H102.732C102.942 22.5338 103.445 23.2305 104.141 23.6839C104.929 24.1633 105.84 24.4005 106.761 24.3659C107.457 24.3815 108.151 24.2686 108.806 24.0329C109.445 23.7716 110.034 23.4025 110.548 22.9419L113.577 26.0929C111.982 27.8702 109.648 28.7589 106.577 28.7589C104.829 28.7964 103.096 28.4227 101.518 27.6679C100.144 26.9915 98.9846 25.948 98.1676 24.6529C97.3506 23.3579 96.9082 21.8619 96.8894 20.3308C96.8705 18.7996 97.276 17.2932 98.0609 15.9784C98.8457 14.6637 99.9793 13.5919 101.336 12.8819C102.745 12.1777 104.296 11.8048 105.871 11.7916C107.446 11.7784 109.003 12.1254 110.423 12.8059C111.736 13.4646 112.834 14.4842 113.588 15.7449C114.393 17.1269 114.797 18.7053 114.757 20.3039L114.758 20.3059ZM86.558 15.8819C85.7484 15.8548 84.9568 16.1244 84.332 16.6399C83.7208 17.1716 83.3183 17.9031 83.196 18.7039H89.92C89.7967 17.9046 89.3942 17.1747 88.784 16.6439C88.1597 16.1271 87.3681 15.8561 86.558 15.8819ZM95.312 20.3059C95.312 20.3466 95.2817 20.8212 95.221 21.7299H83.284C83.4945 22.5337 83.9968 23.2303 84.693 23.6839C85.4805 24.1633 86.3917 24.4005 87.313 24.3659C88.0093 24.3815 88.7026 24.2686 89.358 24.0329C89.9967 23.7714 90.5859 23.4024 91.1 22.9419L94.129 26.0929C92.5337 27.8702 90.2003 28.7589 87.129 28.7589C85.3805 28.7963 83.6477 28.4226 82.07 27.6679C80.6963 26.9915 79.5366 25.948 78.7196 24.6529C77.9026 23.3579 77.4602 21.8619 77.4413 20.3308C77.4225 18.7996 77.828 17.2932 78.6129 15.9784C79.3977 14.6637 80.5313 13.5919 81.888 12.8819C83.2977 12.1759 84.8504 11.8018 86.427 11.7883C88.0036 11.7747 89.5624 12.1222 90.984 12.8039C92.2971 13.4626 93.395 14.4821 94.149 15.7429C94.9515 17.1262 95.3538 18.7053 95.311 20.3039L95.312 20.3059ZM69.05 28.4869L68.989 17.2459L63.537 26.3959H60.872L55.45 17.5489V28.4869H49.907V7.27791H54.844L62.295 19.5189L69.565 7.27791H74.502L74.563 28.4879L69.05 28.4869Z" fill="white"></path>
</svg>
