<svg width="60" height="60" viewBox="0 0 60 60" fill="none" xmlns="http://www.w3.org/2000/svg">
<path d="M60 30C60 13.4315 46.5685 0 30 0C13.4315 0 0 13.4315 0 30C0 46.5685 13.4315 60 30 60C46.5685 60 60 46.5685 60 30Z" fill="#EFF6FF"></path>
<path d="M18.5186 21.7991C18.5182 21.6375 18.5497 21.4773 18.6114 21.3279C18.6731 21.1785 18.7636 21.0428 18.8779 20.9285C18.9922 20.8142 19.128 20.7236 19.2774 20.6619C19.4268 20.6002 19.5869 20.5687 19.7486 20.5691H40.2486C40.4101 20.5691 40.57 20.6009 40.7193 20.6627C40.8685 20.7245 41.0041 20.8151 41.1183 20.9294C41.2325 21.0436 41.3231 21.1792 41.3849 21.3284C41.4467 21.4776 41.4786 21.6376 41.4786 21.7991C41.4786 21.9606 41.4467 22.1206 41.3849 22.2698C41.3231 22.419 41.2325 22.5546 41.1183 22.6688C41.0041 22.7831 40.8685 22.8737 40.7193 22.9355C40.57 22.9973 40.4101 23.0291 40.2486 23.0291H19.7486C19.5869 23.0295 19.4268 22.9979 19.2774 22.9363C19.128 22.8746 18.9922 22.784 18.8779 22.6697C18.7636 22.5554 18.6731 22.4197 18.6114 22.2703C18.5497 22.1209 18.5182 21.9607 18.5186 21.7991ZM18.5186 29.9991C18.5182 29.8375 18.5497 29.6773 18.6114 29.5279C18.6731 29.3785 18.7636 29.2428 18.8779 29.1285C18.9922 29.0142 19.128 28.9236 19.2774 28.8619C19.4268 28.8002 19.5869 28.7687 19.7486 28.7691H40.2486C40.5748 28.7691 40.8876 28.8987 41.1183 29.1294C41.349 29.36 41.4786 29.6729 41.4786 29.9991C41.4786 30.3253 41.349 30.6382 41.1183 30.8688C40.8876 31.0995 40.5748 31.2291 40.2486 31.2291H19.7486C19.587 31.2295 19.427 31.198 19.2776 31.1364C19.1283 31.0748 18.9926 30.9843 18.8783 30.8701C18.764 30.7559 18.6734 30.6203 18.6117 30.471C18.5499 30.3217 18.5183 30.1606 18.5186 29.9991ZM41.4796 38.1991C41.48 38.3607 41.4484 38.5209 41.3867 38.6703C41.3251 38.8197 41.2345 38.9554 41.1202 39.0697C41.0059 39.184 40.8701 39.2746 40.7207 39.3363C40.5713 39.398 40.4112 39.4295 40.2496 39.4291H19.7486C19.4223 39.4291 19.1095 39.2995 18.8788 39.0688C18.6481 38.8382 18.5186 38.5253 18.5186 38.1991C18.5186 37.8729 18.6481 37.56 18.8788 37.3294C19.1095 37.0987 19.4223 36.9691 19.7486 36.9691H40.2486C40.4104 36.9686 40.5707 37 40.7203 37.0617C40.8699 37.1234 41.0058 37.2141 41.1202 37.3285C41.2346 37.4429 41.3253 37.5788 41.3869 37.7284C41.4486 37.878 41.4801 38.0373 41.4796 38.1991Z" fill="#4B6790"></path>
</svg>
