<svg width="60" height="60" viewBox="0 0 60 60" fill="none" xmlns="http://www.w3.org/2000/svg">
<path d="M30 60C46.5685 60 60 46.5685 60 30C60 13.4315 46.5685 0 30 0C13.4315 0 0 13.4315 0 30C0 46.5685 13.4315 60 30 60Z" fill="black" fill-opacity="0.5"></path>
<path d="M35.333 26.4451H27.333C26.6258 26.4448 25.9477 26.1637 25.4478 25.6636C24.9478 25.1634 24.667 24.4852 24.667 23.7781V17.5561H17.556C17.3224 17.5558 17.0911 17.6016 16.8753 17.6909C16.6594 17.7801 16.4633 17.9111 16.2982 18.0763C16.133 18.2414 16.0021 18.4375 15.9128 18.6534C15.8235 18.8692 15.7777 19.1005 15.778 19.3341V40.6671C15.7777 40.9006 15.8235 41.132 15.9128 41.3478C16.0021 41.5636 16.133 41.7597 16.2982 41.9249C16.4633 42.0901 16.6594 42.221 16.8753 42.3103C17.0911 42.3995 17.3224 42.4453 17.556 42.4451H31.778C31.777 43.0586 31.9359 43.6617 32.239 44.1951C32.086 44.2129 31.9321 44.2222 31.778 44.2231H17.556C16.6131 44.2223 15.7091 43.8474 15.0424 43.1807C14.3757 42.514 14.0008 41.6099 14 40.6671V19.3341C14.0008 18.3912 14.3757 17.4872 15.0424 16.8205C15.7091 16.1538 16.6131 15.7789 17.556 15.7781H26.228C26.9346 15.7793 27.6118 16.0609 28.111 16.5611L34.55 22.9951C35.0501 23.4942 35.3318 24.1715 35.333 24.8781V26.4451ZM27.333 24.6671H33.527C33.4898 24.5108 33.409 24.3682 33.294 24.2561L26.856 17.8171C26.743 17.7032 26.6008 17.6225 26.445 17.5841V23.7781C26.4458 24.0134 26.5396 24.2389 26.7059 24.4055C26.8722 24.572 27.0976 24.666 27.333 24.6671ZM39.777 28.2231C39.0697 28.2231 38.3913 28.5041 37.8911 29.0042C37.391 29.5044 37.11 30.1827 37.11 30.8901V33.5571H42.443V30.8891C42.443 30.1821 42.1623 29.504 41.6626 29.0039C41.1628 28.5038 40.485 28.2226 39.778 28.2221L39.777 28.2231ZM35.333 30.8901C35.333 29.7113 35.8013 28.5808 36.6348 27.7473C37.4683 26.9138 38.5987 26.4456 39.7775 26.4456C40.9563 26.4456 42.0867 26.9138 42.9202 27.7473C43.7537 28.5808 44.222 29.7113 44.222 30.8901V33.5571C44.4555 33.5568 44.6867 33.6026 44.9025 33.6918C45.1183 33.781 45.3143 33.9119 45.4795 34.0769C45.6446 34.2419 45.7756 34.4379 45.8649 34.6537C45.9542 34.8694 46.0001 35.1006 46 35.3341V42.4451C46.0003 42.6786 45.9545 42.91 45.8652 43.1258C45.7759 43.3416 45.645 43.5377 45.4798 43.7029C45.3147 43.8681 45.1186 43.999 44.9027 44.0883C44.6869 44.1775 44.4556 44.2233 44.222 44.2231H35.333C35.0994 44.2233 34.8681 44.1775 34.6523 44.0883C34.4364 43.999 34.2403 43.8681 34.0752 43.7029C33.91 43.5377 33.7791 43.3416 33.6898 43.1258C33.6005 42.91 33.5547 42.6786 33.555 42.4451V35.3341C33.5547 35.1005 33.6005 34.8692 33.6898 34.6534C33.7791 34.4375 33.91 34.2414 34.0752 34.0763C34.2403 33.9111 34.4364 33.7801 34.6523 33.6909C34.8681 33.6016 35.0994 33.5558 35.333 33.5561V30.8901ZM35.333 35.3341V42.4451H44.222V35.3341H35.333Z" fill="white"></path>
</svg>
