<svg width="28" height="28" viewBox="0 0 28 28" fill="none" xmlns="http://www.w3.org/2000/svg">
<path d="M22 28H6C4.40927 27.9981 2.88458 27.3655 1.75977 26.2407C0.634949 25.1159 0.00185261 23.5907 0 22V6C0.00185261 4.40927 0.634949 2.88409 1.75977 1.75928C2.88458 0.63446 4.40927 0.00185261 6 0H22C23.5908 0.00158843 25.1163 0.634403 26.2412 1.75928C27.3661 2.88415 27.9984 4.40919 28 6V22C27.9984 23.5908 27.3661 25.1158 26.2412 26.2407C25.1163 27.3656 23.5908 27.9984 22 28ZM6 2C4.93913 2 3.92202 2.42124 3.17188 3.17139C2.42173 3.92153 2 4.93913 2 6V22C2 23.0609 2.42173 24.0785 3.17188 24.8286C3.92202 25.5788 4.93913 26 6 26H22C23.0609 26 24.078 25.5788 24.8281 24.8286C25.5783 24.0785 26 23.0609 26 22V6C26 4.93913 25.5783 3.92153 24.8281 3.17139C24.078 2.42124 23.0609 2 22 2H6Z" fill="white"></path>
</svg>
