<svg width="60" height="60" viewBox="0 0 60 60" fill="none" xmlns="http://www.w3.org/2000/svg">
<path d="M60 30C60 13.4315 46.5685 0 30 0C13.4315 0 0 13.4315 0 30C0 46.5685 13.4315 60 30 60C46.5685 60 60 46.5685 60 30Z" fill="#1ACC8D"></path>
<path d="M32.3062 30.365C32.1322 30.548 32.2422 31.506 32.2142 31.824C32.0192 34.008 29.7412 34.355 28.1042 35.108C29.4042 36.115 31.1222 36.743 30.9042 38.742C30.4897 39.9926 29.8577 41.1602 29.0372 42.191C27.3742 43.922 23.8452 42.106 22.3632 43.545C21.5632 44.324 20.9342 46.928 20.1182 47.431C19.9207 47.5478 19.693 47.6034 19.4639 47.5909C19.2348 47.5784 19.0146 47.4983 18.831 47.3607C18.6474 47.2231 18.5086 47.0342 18.4323 46.8178C18.356 46.6015 18.3455 46.3673 18.4022 46.145C18.8971 44.972 19.4687 43.8329 20.1132 42.735C21.7692 40.011 24.6132 40.81 27.3132 40.628C27.7295 40.0681 28.1038 39.4781 28.4332 38.863C28.6172 38.481 28.7442 38.432 28.3892 38.111C27.4952 37.302 25.6292 36.559 24.8582 35.728C24.7283 35.5974 24.6315 35.4378 24.5758 35.2623C24.52 35.0869 24.5068 34.9006 24.5374 34.7191C24.568 34.5375 24.6415 34.3659 24.7517 34.2184C24.8619 34.0709 25.0057 33.9518 25.1712 33.871L29.7632 31.894C30.0152 31.66 29.8822 30.586 29.9632 30.142C30.0354 29.7651 30.186 29.4076 30.4053 29.0927C30.6247 28.7778 30.9077 28.5125 31.2362 28.314C31.8092 27.985 32.6532 27.914 33.1412 27.623C33.1973 27.5951 33.2464 27.5549 33.2848 27.5054C33.3232 27.4558 33.35 27.3983 33.3632 27.337C33.3952 27.128 32.9882 26.703 32.8352 26.523C31.6352 25.114 28.5772 22.304 27.9522 20.803C27.544 19.0996 27.4263 17.3396 27.6042 15.597C27.6297 15.3084 27.7623 15.0398 27.976 14.8442C28.1897 14.6485 28.4689 14.54 28.7587 14.54C29.0484 14.54 29.3276 14.6485 29.5413 14.8442C29.755 15.0398 29.8876 15.3084 29.9132 15.597C30.0762 17.049 29.4992 19.203 30.3882 20.388C31.7262 22.171 33.8282 23.837 35.1062 25.623C35.3429 25.9352 35.5093 26.295 35.5939 26.6776C35.6785 27.0602 35.6793 27.4566 35.5963 27.8395C35.5133 28.2225 35.3483 28.5829 35.1129 28.8961C34.8774 29.2093 34.577 29.4679 34.2322 29.654C33.8532 29.854 32.4742 30.194 32.3112 30.365" fill="white"></path>
<path d="M42.7727 42.5609C43.0617 42.2219 43.5727 41.8609 43.8997 41.4889C45.3057 39.8636 46.0738 37.7832 46.0613 35.6341C46.0488 33.4851 45.2565 31.4137 43.8317 29.8049C43.2147 29.1049 41.7797 28.2909 42.7487 27.2109C42.8562 27.0952 42.9859 27.0024 43.1301 26.9378C43.2742 26.8732 43.4299 26.8382 43.5878 26.835C43.7457 26.8317 43.9026 26.8602 44.0493 26.9188C44.196 26.9773 44.3294 27.0648 44.4417 27.1759C49.6007 31.1509 49.6537 40.3229 44.4007 44.2259C44.1795 44.4391 43.883 44.5562 43.5758 44.5517C43.2687 44.5472 42.9757 44.4214 42.7609 44.2018C42.5461 43.9823 42.4267 43.6866 42.429 43.3795C42.4312 43.0723 42.5547 42.7774 42.7727 42.5609Z" fill="white"></path>
<path d="M39.6699 41.14C39.5272 40.9903 39.4241 40.8075 39.3699 40.608C39.1829 39.616 39.7759 39.493 40.2879 38.892C41.0631 38.0032 41.4901 36.8638 41.4901 35.6845C41.4901 34.5052 41.0631 33.3657 40.2879 32.477C40.0609 32.211 39.5559 31.877 39.4419 31.592C39.3234 31.3534 39.2903 31.0814 39.348 30.8213C39.4057 30.5613 39.5508 30.3289 39.759 30.1628C39.9673 29.9967 40.2262 29.907 40.4926 29.9087C40.759 29.9104 41.0168 30.0033 41.2229 30.172C43.8729 32.028 44.4049 36.238 42.9959 39.004C42.5099 39.959 40.8779 42.279 39.6659 41.141" fill="white"></path>
<path d="M36.4537 32.2401C37.6467 32.0471 38.6147 33.8291 38.8187 34.8171C38.972 35.5519 38.9253 36.3144 38.6835 37.025C38.4416 37.7357 38.0135 38.3684 37.4437 38.8571C37.2883 38.9939 37.0991 39.0866 36.8958 39.1256C36.6924 39.1646 36.4823 39.1485 36.2873 39.0789C36.0923 39.0093 35.9195 38.8888 35.7868 38.7298C35.6541 38.5709 35.5664 38.3794 35.5327 38.1751C35.4147 37.1241 36.5977 36.9311 36.6217 35.7211C36.6407 34.7591 36.1217 34.6211 35.7217 34.0211C35.6162 33.8627 35.5513 33.6808 35.5327 33.4915C35.514 33.3021 35.5421 33.1111 35.6146 32.9352C35.6871 32.7593 35.8018 32.6039 35.9484 32.4827C36.0951 32.3615 36.2693 32.2782 36.4557 32.2401" fill="white"></path>
<path d="M17.6298 29.1564C17.5028 28.7286 17.1835 28.191 17.0361 27.7179C16.4123 25.6602 16.5568 23.4459 17.4429 21.4868C18.329 19.5276 19.8964 17.9568 21.8536 17.0664C22.7034 16.6782 24.3453 16.5178 23.8992 15.1363C23.8479 14.9869 23.7671 14.8493 23.6616 14.7317C23.5561 14.6141 23.4281 14.5188 23.2851 14.4516C23.1422 14.3843 22.9872 14.3465 22.8293 14.3402C22.6714 14.334 22.5139 14.3595 22.3661 14.4153C16.032 15.9483 12.2506 24.3099 15.4642 30.0156C15.5796 30.3005 15.8029 30.5282 16.0855 30.6491C16.3681 30.77 16.687 30.7743 16.9728 30.661C17.2585 30.5478 17.4879 30.3262 17.6109 30.0445C17.7339 29.7628 17.741 29.443 17.6298 29.1564Z" fill="white"></path>
</svg>
