<svg width="60" height="60" viewBox="0 0 60 60" fill="none" xmlns="http://www.w3.org/2000/svg">
<path d="M30 60C46.5685 60 60 46.5685 60 30C60 13.4315 46.5685 0 30 0C13.4315 0 0 13.4315 0 30C0 46.5685 13.4315 60 30 60Z" fill="black" fill-opacity="0.5"></path>
<path d="M27.4752 18.2141C29.307 18.2141 31.0977 18.7573 32.6209 19.775C34.144 20.7927 35.3311 22.2392 36.0321 23.9316C36.7332 25.6241 36.9166 27.4863 36.5592 29.283C36.2018 31.0796 35.3197 32.73 34.0244 34.0253C32.7291 35.3206 31.0787 36.2027 29.2821 36.5601C27.4854 36.9175 25.6232 36.7341 23.9307 36.033C22.2383 35.332 20.7918 34.1449 19.7741 32.6218C18.7564 31.0986 18.2132 29.3079 18.2132 27.4761C18.2132 25.0196 19.189 22.6638 20.9259 20.9268C22.6629 19.1899 25.0187 18.2141 27.4752 18.2141ZM27.4752 38.4211C30.0873 38.4268 32.6144 37.493 34.5952 35.7901L42.0362 43.2301C42.1945 43.3884 42.4092 43.4773 42.6332 43.4773C42.8571 43.4773 43.0718 43.3884 43.2302 43.2301C43.3885 43.0717 43.4774 42.857 43.4774 42.6331C43.4774 42.4091 43.3885 42.1944 43.2302 42.0361L35.7902 34.5951C37.4138 32.6991 38.3407 30.3052 38.4172 27.8102C38.4936 25.3153 37.715 22.8691 36.2104 20.8773C34.7058 18.8856 32.5657 17.4679 30.1449 16.8593C27.724 16.2508 25.1679 16.4879 22.9004 17.5314C20.6328 18.5749 18.79 20.3621 17.6775 22.5967C16.565 24.8312 16.2497 27.3789 16.7838 29.8172C17.3179 32.2556 18.6694 34.4381 20.6141 36.003C22.5588 37.5679 24.98 38.421 27.4762 38.4211H27.4752ZM22.4242 26.6301C22.3136 26.6301 22.2041 26.6518 22.1019 26.6942C21.9998 26.7365 21.907 26.7985 21.8288 26.8767C21.7506 26.9549 21.6886 27.0477 21.6463 27.1498C21.6039 27.252 21.5822 27.3615 21.5822 27.4721C21.5822 27.5826 21.6039 27.6921 21.6463 27.7943C21.6886 27.8964 21.7506 27.9893 21.8288 28.0674C21.907 28.1456 21.9998 28.2077 22.1019 28.25C22.2041 28.2923 22.3136 28.3141 22.4242 28.3141H32.5302C32.6407 28.3141 32.7502 28.2923 32.8524 28.25C32.9545 28.2077 33.0474 28.1456 33.1255 28.0674C33.2037 27.9893 33.2658 27.8964 33.3081 27.7943C33.3504 27.6921 33.3722 27.5826 33.3722 27.4721C33.3722 27.3615 33.3504 27.252 33.3081 27.1498C33.2658 27.0477 33.2037 26.9549 33.1255 26.8767C33.0474 26.7985 32.9545 26.7365 32.8524 26.6942C32.7502 26.6518 32.6407 26.6301 32.5302 26.6301H22.4242Z" fill="white"></path>
</svg>
